<?xml version="1.0" encoding="UTF-8"?>
<svg width="28px" height="28px" viewBox="0 0 28 28" version="1.1" xmlns="http://www.w3.org/2000/svg" xmlns:xlink="http://www.w3.org/1999/xlink">
    <!-- Generator: Sketch 63.1 (92452) - https://sketch.com -->
    <title>arrow-icon__white</title>
    <desc>Created with Sketch.</desc>
    <g id="arrow-icon__white" stroke="none" stroke-width="1" fill="none" fill-rule="evenodd">
        <g id="Group-4" transform="translate(14.000000, 14.000000) rotate(-90.000000) translate(-14.000000, -14.000000) " fill="#FFFFFF" fill-rule="nonzero">
            <g id="arrow-down">
                <path d="M27.7414414,13.6008909 L26.4927928,12.366147 C26.1963964,12.0730512 25.7171171,12.0730512 25.4207207,12.366147 L15.6396396,22.0383073 L15.6396396,0.748329621 C15.6396396,0.33674833 15.2990991,0 14.8828829,0 L13.1171171,0 C12.7009009,0 12.3603604,0.33674833 12.3603604,0.748329621 L12.3603604,22.0383073 L2.57927928,12.366147 C2.28288288,12.0730512 1.8036036,12.0730512 1.50720721,12.366147 L0.258558559,13.6008909 C-0.0378378378,13.8939866 -0.0378378378,14.3679287 0.258558559,14.6610245 L13.463964,27.7193764 C13.7603604,28.0124722 14.2396396,28.0124722 14.536036,27.7193764 L27.7414414,14.6610245 C28.0378378,14.3679287 28.0378378,13.8939866 27.7414414,13.6008909 Z" id="Shape"></path>
            </g>
        </g>
    </g>
</svg>