<?xml version="1.0" encoding="UTF-8"?>
<svg width="28px" height="28px" viewBox="0 0 28 28" version="1.1" xmlns="http://www.w3.org/2000/svg" xmlns:xlink="http://www.w3.org/1999/xlink">
    <!-- Generator: Sketch 63.1 (92452) - https://sketch.com -->
    <title>facebook-icon__black</title>
    <desc>Created with Sketch.</desc>
    <g id="facebook-icon__black" stroke="none" stroke-width="1" fill="none" fill-rule="evenodd">
        <path d="M19,3.13332612 L19,6.85831436 C17.6391942,6.90175088 16.3295455,6.72825021 15.9596119,7.21525457 C15.5099543,7.87342826 15.6233847,9.20965337 15.590515,10.2961798 C16.6307516,10.3455061 17.5271981,10.2805967 18.62158,10.331518 C18.6000653,11.6169445 18.6007825,12.9528015 18.6007825,14.1188389 C17.5948499,14.1188389 16.6888413,14.1188389 15.6474095,14.0974887 L15.6474095,25.0557617 C14.675781,25.0557617 12.671446,25.0868053 11.2036642,25.0618968 L11.2036642,14.1776132 C10.6035232,14.1625208 9.74675934,14.1947915 9.01932286,14.1675516 C8.98155258,12.9941521 9.0085655,11.6083554 9.02147433,10.3364261 L11.1259722,10.3364261 C10.9298297,6.14651988 11.7059134,3.48167719 15.1803011,3.13332612 C16.3579928,3.01540947 17.5124964,3.09590201 19,3.13332612" id="Fill-2" fill="#000000"></path>
    </g>
</svg>