<?xml version="1.0" encoding="UTF-8"?>
<svg width="28px" height="28px" viewBox="0 0 28 28" version="1.1" xmlns="http://www.w3.org/2000/svg" xmlns:xlink="http://www.w3.org/1999/xlink">
    <!-- Generator: Sketch 63.1 (92452) - https://sketch.com -->
    <title>instagram-icon__white</title>
    <desc>Created with Sketch.</desc>
    <g id="instagram-icon__white" stroke="none" stroke-width="1" fill="none" fill-rule="evenodd">
        <path d="M14.0186929,9.06549432 C11.8004708,9.06549432 10.0018001,10.8080864 10.0018001,12.9570756 C10.0018001,15.1060648 11.8004708,16.8493492 14.0186929,16.8493492 C16.2362227,16.8493492 18.0355857,15.1060648 18.0355857,12.9570756 C18.0355857,10.8080864 16.2362227,9.06549432 14.0186929,9.06549432 L14.0186929,9.06549432 Z M21.7395458,11.4588757 L19.9789532,11.4588757 C20.1458045,12.0023539 20.2351149,12.5783716 20.2351149,13.1744669 C20.2351149,16.5011077 17.4519524,19.1977292 14.0186929,19.1977292 C10.5854334,19.1977292 7.80227084,16.5011077 7.80227084,13.1744669 C7.80227084,12.5783716 7.89227361,12.0023539 8.05843257,11.4588757 L6.22168374,11.4588757 L6.22168374,19.9066741 C6.22168374,20.344226 6.57961783,20.7014677 7.01716976,20.7014677 L20.9440598,20.7014677 C21.3816117,20.7014677 21.7395458,20.344226 21.7395458,19.9066741 L21.7395458,11.4588757 Z M18.568679,5.22237607 C18.0736638,5.22237607 17.667959,5.62808086 17.667959,6.1230961 L17.667959,8.27831626 C17.667959,8.77333149 18.0736638,9.17903628 18.568679,9.17903628 L20.8298255,9.17903628 C21.3241484,9.17903628 21.7298532,8.77333149 21.7298532,8.27831626 L21.7298532,6.1230961 C21.7298532,5.62808086 21.3241484,5.22237607 20.8298255,5.22237607 L18.568679,5.22237607 Z M6.56646358,3 L21.4321518,3 C22.8445029,3 24,4.15618942 24,5.56784824 L24,20.4328441 C24,21.8451952 22.8445029,23 21.4321518,23 L6.56646358,23 C5.15549709,23 4,21.8451952 4,20.4328441 L4,5.56784824 C4,4.15618942 5.15549709,3 6.56646358,3 L6.56646358,3 Z" id="Fill-5" fill="#FEFEFE"></path>
    </g>
</svg>