<?xml version="1.0" encoding="UTF-8"?>
<svg width="322px" height="129px" viewBox="0 0 322 129" version="1.1" xmlns="http://www.w3.org/2000/svg" xmlns:xlink="http://www.w3.org/1999/xlink">
    <!-- Generator: Sketch 63.1 (92452) - https://sketch.com -->
    <title>legacy-tattoo-main-logo__short</title>
    <desc>Created with Sketch.</desc>
    <defs>
        <path d="M49.3967505,75.1955617 L50.916634,56.371706 L49.2367628,56.371706 C46.463642,62.1636616 43.7305181,66.4539991 41.0373912,69.2427184 C38.3442643,72.0314378 34.7312079,73.4257975 30.198222,73.4257975 L30.198222,73.4257975 L27.3184427,73.4257975 L27.3184427,20.6546463 L35.7977928,20.6546463 L35.7977928,18.8848821 L7,18.8848821 L7,20.6546463 L11.7196383,20.6546463 L11.7196383,73.4257975 L7,73.4257975 L7,75.1955617 L49.3967505,75.1955617 Z M98.6616346,75.1955617 L99.3015856,57.6588072 L97.7017082,57.6588072 C96.4218063,62.27092 94.0619872,66.0517799 90.6222508,69.001387 C87.1825144,71.950994 83.0095009,73.4257975 78.1032103,73.4257975 L78.1032103,73.4257975 L75.0634433,73.4257975 L75.0634433,47.6033287 L76.9832961,47.6033287 C79.8097462,47.6033287 82.0362422,48.4613962 83.6627842,50.1775312 C85.2893262,51.8936662 86.5825604,54.7628294 87.5424868,58.7850208 L87.5424868,58.7850208 L88.9023826,58.7850208 L88.9023826,34.9736477 L87.7024746,34.9736477 C87.0091944,38.1914008 85.8092863,40.752196 84.1027505,42.6560333 C82.3962146,44.5598706 80.2897094,45.5117892 77.7832348,45.5117892 L77.7832348,45.5117892 L75.0634433,45.5117892 L75.0634433,20.6546463 L77.8632287,20.6546463 C82.6095316,20.6546463 86.2092557,21.6601942 88.662401,23.6712899 C91.1155463,25.6823856 93.4620331,29.396209 95.7018615,34.8127601 L95.7018615,34.8127601 L97.1417511,34.8127601 L96.3418124,18.8848821 L54.7450006,18.8848821 L54.7450006,20.6546463 L59.4646389,20.6546463 L59.4646389,73.4257975 L54.7450006,73.4257975 L54.7450006,75.1955617 L98.6616346,75.1955617 Z M131.687763,76 C134.300896,76 137.460654,75.517337 141.167037,74.5520111 C144.873419,73.5866852 147.099915,73.1040222 147.846525,73.1040222 C149.60639,73.1040222 150.966286,73.7743874 151.926212,75.1151179 L151.926212,75.1151179 L153.12612,75.1151179 L153.12612,52.4299584 L156.245881,52.4299584 L156.245881,50.6601942 L133.207647,50.6601942 L133.207647,52.4299584 L138.327254,52.4299584 L138.327254,68.036061 C138.327254,70.3421174 137.967282,71.9778086 137.247337,72.9431345 C136.527392,73.9084605 134.860853,74.3911234 132.24772,74.3911234 C128.514673,74.3911234 125.648226,72.3398058 123.64838,68.2371706 C121.648533,64.1345354 120.648609,58.0610264 120.648609,50.0166436 L120.648609,50.0166436 L120.648609,43.6615811 C120.648609,27.6264448 124.728297,19.6088766 132.887671,19.6088766 C136.140755,19.6088766 139.087196,21.0970874 141.726994,24.073509 C144.366792,27.0499307 146.993257,31.1391586 149.60639,36.3411928 L149.60639,36.3411928 L151.04628,36.3411928 L150.406329,18.8848821 L149.526396,18.8848821 C149.206421,19.4748035 148.91311,19.89043 148.646464,20.1317614 C148.379817,20.3730929 147.979848,20.4937587 147.446556,20.4937587 C146.913263,20.4937587 145.006743,20.0781322 141.726994,19.2468793 C138.447245,18.4156264 135.180829,18 131.927745,18 C123.501724,18 116.795571,20.5742025 111.809287,25.7226075 C106.823002,30.8710125 104.32986,38.1779935 104.32986,47.6435506 C104.32986,57.1091077 106.716344,64.2015719 111.489311,68.9209431 C116.262279,73.6403144 122.995096,76 131.687763,76 Z M169.273543,75.1955617 L169.273543,73.667129 L163.274002,73.667129 L169.43353,56.2912621 L185.272316,56.2912621 L191.111869,73.667129 L185.432304,73.667129 L185.432304,75.1955617 L211.590299,75.1955617 L211.590299,73.667129 L207.910581,73.667129 L187.752126,18.4022191 L181.192629,18.4022191 L160.794192,73.667129 L157.034481,73.667129 L157.034481,75.1955617 L169.273543,75.1955617 Z M184.632365,54.5214979 L170.153475,54.5214979 L177.672899,33.445215 L184.632365,54.5214979 Z M238.776876,76 C242.243277,76 245.656348,75.5843736 249.016091,74.7531207 C252.375833,73.9218678 254.309018,73.5062413 254.815646,73.5062413 C255.322274,73.5062413 255.708911,73.6269071 255.975557,73.8682386 C256.242204,74.10957 256.535514,74.5251965 256.85549,75.1151179 L256.85549,75.1151179 L257.735422,75.1151179 L258.29538,57.1761442 L256.85549,57.1761442 C251.949199,68.652797 246.562945,74.3911234 240.696728,74.3911234 C236.430389,74.3911234 233.203969,72.2325474 231.01747,67.9153953 C228.830971,63.5982432 227.737722,57.6319926 227.737722,50.0166436 L227.737722,50.0166436 L227.737722,43.6615811 C227.737722,27.6264448 231.870738,19.6088766 240.136771,19.6088766 C243.389855,19.6088766 246.282967,21.0434582 248.816106,23.9126214 C251.349245,26.7817846 253.815723,30.9246417 256.215539,36.3411928 L256.215539,36.3411928 L257.655429,36.3411928 L257.015478,18.8848821 L256.135545,18.8848821 C255.81557,19.4748035 255.522259,19.89043 255.255613,20.1317614 C254.988966,20.3730929 254.588997,20.4937587 254.055704,20.4937587 C253.522412,20.4937587 251.695885,20.0781322 248.576124,19.2468793 C245.456364,18.4156264 242.269941,18 239.016857,18 C230.590836,18 223.884684,20.5742025 218.898399,25.7226075 C213.912115,30.8710125 211.418972,38.1779935 211.418972,47.6435506 C211.418972,57.1091077 213.805456,64.2015719 218.578424,68.9209431 C223.351391,73.6403144 230.084208,76 238.776876,76 Z M298.520956,75.1955617 L298.520956,73.667129 L293.64133,73.667129 L293.64133,47.0402219 L305.720405,20.1719834 L311,20.1719834 L311,18.8848821 L295.241208,18.8848821 L295.241208,20.1719834 L303.320589,20.1719834 L291.961459,45.3509015 L281.082293,20.1719834 L286.281895,20.1719834 L286.281895,18.8848821 L260.683856,18.8848821 L260.683856,20.1719834 L264.443568,20.1719834 L278.042526,48.5686546 L278.042526,73.667129 L273.1629,73.667129 L273.1629,75.1955617 L298.520956,75.1955617 Z" id="path-1"></path>
        <filter x="-2.3%" y="-8.6%" width="104.6%" height="124.1%" filterUnits="objectBoundingBox" id="filter-2">
            <feOffset dx="0" dy="2" in="SourceAlpha" result="shadowOffsetOuter1"></feOffset>
            <feGaussianBlur stdDeviation="2" in="shadowOffsetOuter1" result="shadowBlurOuter1"></feGaussianBlur>
            <feColorMatrix values="0 0 0 0 0   0 0 0 0 0   0 0 0 0 0  0 0 0 0.5 0" type="matrix" in="shadowBlurOuter1"></feColorMatrix>
        </filter>
    </defs>
    <g id="legacy-tattoo-main-logo__short" stroke="none" stroke-width="1" fill="none" fill-rule="evenodd">
        <g id="LEGACY" fill-rule="nonzero">
            <use fill="black" fill-opacity="1" filter="url(#filter-2)" xlink:href="#path-1"></use>
            <use fill="#FFFFFF" xlink:href="#path-1"></use>
        </g>
        <path d="M60.117674,112.730077 L60.117674,96.3592545 L66.2156235,96.3592545 L66.2156235,93.0796915 L50,93.0796915 L50,96.3592545 L56.0159143,96.3592545 L56.0159143,112.730077 L60.117674,112.730077 Z M70.6496418,113 C72.1809654,113 73.4251659,112.47365 74.3822432,111.420951 C74.4642784,111.942802 74.5964462,112.379177 74.7787466,112.730077 L74.7787466,112.730077 L78.7711261,112.730077 L78.7711261,112.500643 C78.3882952,111.789846 78.1923222,110.741645 78.1832072,109.356041 L78.1832072,109.356041 L78.1832072,103.02635 C78.1832072,101.388817 77.6476997,100.117931 76.5766846,99.2136889 C75.5056696,98.3094473 74.0586599,97.8573265 72.2356556,97.8573265 C71.0324727,97.8573265 69.9477851,98.062018 68.9815928,98.471401 C68.0154005,98.8807841 67.2679688,99.4453728 66.7392975,100.165167 C66.2106263,100.884961 65.9462906,101.667738 65.9462906,102.513496 L65.9462906,102.513496 L69.8976525,102.513496 C69.8976525,101.964653 70.0867892,101.532776 70.4650626,101.217866 C70.843336,100.902956 71.365171,100.745501 72.0305676,100.745501 C72.7871144,100.745501 73.3408519,100.947943 73.6917803,101.352828 C74.0427086,101.757712 74.2181728,102.297558 74.2181728,102.972365 L74.2181728,102.972365 L74.2181728,103.809126 L72.399726,103.809126 C70.2030057,103.818123 68.523563,104.236504 67.3613977,105.064267 C66.1992325,105.892031 65.6181499,107.079692 65.6181499,108.627249 C65.6181499,109.886889 66.0944097,110.930591 67.0469295,111.758355 C67.9994493,112.586118 69.2003534,113 70.6496418,113 Z M71.5110113,110.017352 C70.9094199,110.017352 70.4354388,109.859897 70.089068,109.544987 C69.7426971,109.230077 69.5695117,108.829692 69.5695117,108.34383 L69.5695117,108.34383 L69.5831843,108.114396 C69.7107946,106.764781 70.7635796,106.089974 72.7415393,106.089974 L72.7415393,106.089974 L74.2181728,106.089974 L74.2181728,108.600257 C73.9811822,109.032134 73.6165813,109.376285 73.1243702,109.632712 C72.632159,109.889139 72.0943727,110.017352 71.5110113,110.017352 Z M86.4455346,113 C87.2658865,113 88.0634509,112.883033 88.8382278,112.6491 L88.8382278,112.6491 L88.8382278,109.693445 C88.500972,109.756427 88.1135835,109.787918 87.6760625,109.787918 C87.0835861,109.787918 86.6825251,109.670951 86.4728796,109.437018 C86.2632341,109.203085 86.1584114,108.816195 86.1584114,108.27635 L86.1584114,108.27635 L86.1584114,100.988432 L88.6878299,100.988432 L88.6878299,98.1272494 L86.1584114,98.1272494 L86.1584114,94.5372751 L82.2070495,94.5372751 L82.2070495,98.1272494 L80.0467894,98.1272494 L80.0467894,100.988432 L82.2070495,100.988432 L82.2070495,108.856684 C82.2617396,111.618895 83.674568,113 86.4455346,113 Z M96.1161328,113 C96.9364848,113 97.7340492,112.883033 98.508826,112.6491 L98.508826,112.6491 L98.508826,109.693445 C98.1715702,109.756427 97.7841818,109.787918 97.3466607,109.787918 C96.7541843,109.787918 96.3531234,109.670951 96.1434779,109.437018 C95.9338324,109.203085 95.8290096,108.816195 95.8290096,108.27635 L95.8290096,108.27635 L95.8290096,100.988432 L98.3584281,100.988432 L98.3584281,98.1272494 L95.8290096,98.1272494 L95.8290096,94.5372751 L91.8776478,94.5372751 L91.8776478,98.1272494 L89.7173876,98.1272494 L89.7173876,100.988432 L91.8776478,100.988432 L91.8776478,108.856684 C91.9323379,111.618895 93.3451662,113 96.1161328,113 Z M106.757481,113 C108.890396,113 110.590347,112.322943 111.857335,110.96883 C113.124323,109.614717 113.757817,107.817481 113.757817,105.577121 L113.757817,105.577121 L113.730472,104.578406 C113.584632,102.508997 112.880497,100.871465 111.618066,99.6658098 C110.355636,98.4601542 108.726326,97.8573265 106.730136,97.8573265 C105.326422,97.8573265 104.093616,98.1677378 103.031716,98.7885604 C101.969816,99.409383 101.1563,100.286632 100.591169,101.420308 C100.026037,102.553985 99.7434717,103.845116 99.7434717,105.293702 L99.7434717,105.293702 L99.7434717,105.469152 C99.7434717,107.790488 100.379244,109.625964 101.65079,110.975578 C102.922336,112.325193 104.624566,113 106.757481,113 Z M106.757481,109.855398 C105.773059,109.855398 105.016512,109.488753 104.48784,108.755463 C103.959169,108.022172 103.694834,106.962725 103.694834,105.577121 C103.694834,104.020566 103.959169,102.871144 104.48784,102.128856 C105.016512,101.386568 105.763943,101.015424 106.730136,101.015424 C107.705443,101.015424 108.46199,101.388817 108.999776,102.135604 C109.537562,102.882391 109.806456,103.93509 109.806456,105.293702 C109.806456,106.886247 109.537562,108.044666 108.999776,108.768959 C108.46199,109.493252 107.714558,109.855398 106.757481,109.855398 Z M122.799479,113 C124.932394,113 126.632346,112.322943 127.899334,110.96883 C129.166322,109.614717 129.799816,107.817481 129.799816,105.577121 L129.799816,105.577121 L129.772471,104.578406 C129.62663,102.508997 128.922495,100.871465 127.660065,99.6658098 C126.397634,98.4601542 124.768324,97.8573265 122.772134,97.8573265 C121.368421,97.8573265 120.135614,98.1677378 119.073714,98.7885604 C118.011814,99.409383 117.198298,100.286632 116.633167,101.420308 C116.068036,102.553985 115.78547,103.845116 115.78547,105.293702 L115.78547,105.293702 L115.78547,105.469152 C115.78547,107.790488 116.421243,109.625964 117.692788,110.975578 C118.964334,112.325193 120.666564,113 122.799479,113 Z M122.799479,109.855398 C121.815057,109.855398 121.05851,109.488753 120.529839,108.755463 C120.001168,108.022172 119.736832,106.962725 119.736832,105.577121 C119.736832,104.020566 120.001168,102.871144 120.529839,102.128856 C121.05851,101.386568 121.805942,101.015424 122.772134,101.015424 C123.747441,101.015424 124.503988,101.388817 125.041775,102.135604 C125.579561,102.882391 125.848454,103.93509 125.848454,105.293702 C125.848454,106.886247 125.579561,108.044666 125.041775,108.768959 C124.503988,109.493252 123.756556,109.855398 122.799479,109.855398 Z M147.500308,113 C149.833754,113 151.713727,112.392674 153.140228,111.178021 C154.566729,109.963368 155.357457,108.298843 155.512412,106.184447 L155.512412,106.184447 L151.410653,106.184447 C151.319502,107.381105 150.961738,108.265103 150.337359,108.83644 C149.71298,109.407776 148.767296,109.693445 147.500308,109.693445 C146.096595,109.693445 145.068876,109.203085 144.417152,108.222365 C143.765428,107.241645 143.439566,105.689589 143.439566,103.566195 L143.439566,103.566195 L143.439566,102.08162 C143.457796,100.048201 143.806446,98.5478792 144.485515,97.5806555 C145.164584,96.6134319 146.187745,96.1298201 147.554999,96.1298201 C148.812872,96.1298201 149.74944,96.4154884 150.364704,96.9868252 C150.979968,97.558162 151.337733,98.4781491 151.437998,99.7467866 L151.437998,99.7467866 L155.539757,99.7467866 C155.320997,97.5514139 154.50976,95.846401 153.106047,94.6317481 C151.702333,93.4170951 149.851984,92.8097686 147.554999,92.8097686 C145.896065,92.8097686 144.43994,93.1944087 143.186624,93.9636889 C141.933309,94.7329692 140.969395,95.8374036 140.294884,97.2769923 C139.620372,98.716581 139.283116,100.381105 139.283116,102.270566 L139.283116,102.270566 L139.283116,103.471722 C139.283116,106.431877 140.014597,108.759961 141.477558,110.455977 C142.940519,112.151992 144.948102,113 147.500308,113 Z M164.554074,113 C166.686989,113 168.386941,112.322943 169.653929,110.96883 C170.920917,109.614717 171.554411,107.817481 171.554411,105.577121 L171.554411,105.577121 L171.527066,104.578406 C171.381225,102.508997 170.67709,100.871465 169.414659,99.6658098 C168.152229,98.4601542 166.522919,97.8573265 164.526729,97.8573265 C163.123016,97.8573265 161.890209,98.1677378 160.828309,98.7885604 C159.766409,99.409383 158.952893,100.286632 158.387762,101.420308 C157.822631,102.553985 157.540065,103.845116 157.540065,105.293702 L157.540065,105.293702 L157.540065,105.469152 C157.540065,107.790488 158.175838,109.625964 159.447383,110.975578 C160.718929,112.325193 162.421159,113 164.554074,113 Z M164.554074,109.855398 C163.569652,109.855398 162.813105,109.488753 162.284434,108.755463 C161.755763,108.022172 161.491427,106.962725 161.491427,105.577121 C161.491427,104.020566 161.755763,102.871144 162.284434,102.128856 C162.813105,101.386568 163.560537,101.015424 164.526729,101.015424 C165.502036,101.015424 166.258583,101.388817 166.79637,102.135604 C167.334156,102.882391 167.603049,103.93509 167.603049,105.293702 C167.603049,106.886247 167.334156,108.044666 166.79637,108.768959 C166.258583,109.493252 165.511151,109.855398 164.554074,109.855398 Z M178.36745,112.730077 L178.36745,92 L174.402415,92 L174.402415,112.730077 L178.36745,112.730077 Z M186.000841,112.730077 L186.000841,92 L182.035806,92 L182.035806,112.730077 L186.000841,112.730077 Z M196.27303,113 C197.503558,113 198.624706,112.768316 199.636473,112.304949 C200.648241,111.841581 201.450363,111.196015 202.042839,110.368252 L202.042839,110.368252 L200.101339,108.222365 C199.244527,109.311054 198.055017,109.855398 196.532808,109.855398 C195.548386,109.855398 194.73487,109.567481 194.092261,108.991645 C193.449652,108.41581 193.064543,107.651028 192.936932,106.697301 L192.936932,106.697301 L202.357307,106.697301 L202.357307,105.104756 C202.357307,102.792416 201.776225,101.006427 200.614059,99.7467866 C199.451894,98.4871465 197.859044,97.8573265 195.835509,97.8573265 C194.486486,97.8573265 193.285582,98.1699871 192.232797,98.7953085 C191.180012,99.4206298 190.366496,100.311375 189.79225,101.467545 C189.218004,102.623715 188.93088,103.93509 188.93088,105.401671 L188.93088,105.401671 L188.93088,105.779563 C188.93088,107.965938 189.612228,109.715938 190.974924,111.029563 C192.33762,112.343188 194.103655,113 196.27303,113 Z M198.474308,104.03856 L192.97795,104.03856 C193.114675,103.066838 193.426865,102.320051 193.914518,101.798201 C194.402172,101.27635 195.037945,101.015424 195.821837,101.015424 C196.660419,101.015424 197.307585,101.251607 197.763336,101.723972 C198.219087,102.196337 198.456078,102.864396 198.474308,103.728149 L198.474308,103.728149 L198.474308,104.03856 Z M211.029811,113 C212.160073,113 213.19235,112.772815 214.126639,112.318445 C215.060929,111.864075 215.796967,111.225257 216.334753,110.401992 C216.872539,109.578728 217.14599,108.672237 217.155105,107.682519 L217.155105,107.682519 L213.449849,107.682519 C213.431619,108.339332 213.194628,108.865681 212.738877,109.261568 C212.283126,109.657455 211.69065,109.855398 210.961448,109.855398 C210.013486,109.855398 209.307072,109.526992 208.842205,108.87018 C208.377339,108.213368 208.144906,107.133676 208.144906,105.631105 L208.144906,105.631105 L208.144906,105.226221 C208.144906,103.741645 208.379618,102.668702 208.849042,102.007391 C209.318465,101.34608 210.013486,101.015424 210.934103,101.015424 C211.681535,101.015424 212.283126,101.251607 212.738877,101.723972 C213.194628,102.196337 213.431619,102.810411 213.449849,103.566195 L213.449849,103.566195 L217.155105,103.566195 C217.136875,101.838689 216.569465,100.455334 215.452875,99.4161311 C214.336285,98.376928 212.852815,97.8573265 211.002466,97.8573265 C208.887781,97.8573265 207.224289,98.527635 206.011991,99.8682519 C204.799693,101.208869 204.193544,103.003856 204.193544,105.253213 L204.193544,105.253213 L204.193544,105.50964 C204.193544,107.848972 204.804251,109.682198 206.025664,111.009319 C207.247077,112.33644 208.915126,113 211.029811,113 Z M224.638098,113 C225.45845,113 226.256015,112.883033 227.030791,112.6491 L227.030791,112.6491 L227.030791,109.693445 C226.693536,109.756427 226.306147,109.787918 225.868626,109.787918 C225.27615,109.787918 224.875089,109.670951 224.665443,109.437018 C224.455798,109.203085 224.350975,108.816195 224.350975,108.27635 L224.350975,108.27635 L224.350975,100.988432 L226.880394,100.988432 L226.880394,98.1272494 L224.350975,98.1272494 L224.350975,94.5372751 L220.399613,94.5372751 L220.399613,98.1272494 L218.239353,98.1272494 L218.239353,100.988432 L220.399613,100.988432 L220.399613,108.856684 C220.454303,111.618895 221.867132,113 224.638098,113 Z M231.478482,96.3727506 C232.143879,96.3727506 232.679386,96.1838046 233.085005,95.8059126 C233.490623,95.4280206 233.693432,94.9421594 233.693432,94.348329 C233.693432,93.7634961 233.492902,93.2821337 233.091841,92.9042416 C232.69078,92.5263496 232.152994,92.3374036 231.478482,92.3374036 C230.794856,92.3374036 230.254791,92.5263496 229.858287,92.9042416 C229.461784,93.2821337 229.263532,93.7634961 229.263532,94.348329 C229.263532,94.9421594 229.466341,95.4280206 229.87196,95.8059126 C230.277578,96.1838046 230.813086,96.3727506 231.478482,96.3727506 Z M233.460999,112.730077 L233.460999,98.1272494 L229.495965,98.1272494 L229.495965,112.730077 L233.460999,112.730077 Z M244.348453,112.730077 L249.338927,98.1272494 L245.209823,98.1272494 L242.461644,107.965938 L239.713465,98.1272494 L235.58436,98.1272494 L240.574834,112.730077 L244.348453,112.730077 Z M257.915723,113 C259.146251,113 260.267399,112.768316 261.279166,112.304949 C262.290933,111.841581 263.093055,111.196015 263.685532,110.368252 L263.685532,110.368252 L261.744032,108.222365 C260.88722,109.311054 259.69771,109.855398 258.175501,109.855398 C257.191079,109.855398 256.377563,109.567481 255.734954,108.991645 C255.092345,108.41581 254.707235,107.651028 254.579625,106.697301 L254.579625,106.697301 L264,106.697301 L264,105.104756 C264,102.792416 263.418917,101.006427 262.256752,99.7467866 C261.094587,98.4871465 259.501737,97.8573265 257.478202,97.8573265 C256.129179,97.8573265 254.928275,98.1699871 253.87549,98.7953085 C252.822705,99.4206298 252.009189,100.311375 251.434943,101.467545 C250.860696,102.623715 250.573573,103.93509 250.573573,105.401671 L250.573573,105.401671 L250.573573,105.779563 C250.573573,107.965938 251.254921,109.715938 252.617617,111.029563 C253.980312,112.343188 255.746348,113 257.915723,113 Z M260.117001,104.03856 L254.620643,104.03856 C254.757368,103.066838 255.069558,102.320051 255.557211,101.798201 C256.044865,101.27635 256.680638,101.015424 257.464529,101.015424 C258.303111,101.015424 258.950278,101.251607 259.406029,101.723972 C259.86178,102.196337 260.098771,102.864396 260.117001,103.728149 L260.117001,103.728149 L260.117001,104.03856 Z" id="TattooCollective" fill="#FFCF66" fill-rule="nonzero"></path>
    </g>
</svg>