<?xml version="1.0" encoding="UTF-8"?>
<svg width="98px" height="105px" viewBox="0 0 98 105" version="1.1" xmlns="http://www.w3.org/2000/svg" xmlns:xlink="http://www.w3.org/1999/xlink">
    <!-- Generator: Sketch 63.1 (92452) - https://sketch.com -->
    <title>legacy-tattoo-main-icon</title>
    <desc>Created with Sketch.</desc>
    <g id="legacy-tattoo-main-icon" stroke="none" stroke-width="1" fill="none" fill-rule="evenodd">
        <g id="Fill-51" transform="translate(6.000000, 8.000000)" fill="#E7CF78" stroke="#EBCE69">
            <path d="M19.868203,21.5833929 C19.8235329,21.5422314 19.7774884,21.5017447 19.7328183,21.4599084 C19.1218687,22.1596536 18.5109192,22.8600737 17.9013442,23.5598189 C17.9590717,23.6063786 18.0174864,23.6536131 18.075214,23.7015224 C18.6731061,22.9950293 19.2709982,22.2892111 19.868203,21.5833929 L19.868203,21.5833929 Z M9.67860972,21.6690897 C9.63119069,21.7824525 9.58377166,21.8951405 9.53703987,22.0078285 C10.1363064,22.4835473 10.667537,23.1131156 11.3492714,23.4032703 C12.8955441,24.0638784 14.5545229,24.28723 16.247176,24.077374 C16.4024905,24.0578054 16.5949156,23.9896528 16.6870047,23.8783143 C17.8656081,22.4518327 19.0284052,21.0132051 20.1960128,19.5779513 C16.8512532,21.2102404 13.4178407,22.1198417 9.67860972,21.6690897 L9.67860972,21.6690897 Z M60.8705437,33.7455994 C60.7612738,33.6025464 60.6891144,33.5168495 60.6272635,33.4250796 C59.6864424,32.0485316 59.8699335,30.7914194 61.1042027,30.1335104 C62.4491163,29.4155462 63.9823315,29.9486211 64.6303916,31.3609324 C65.3726025,32.9804006 65.0757181,34.4925791 64.1232142,35.9494258 C65.1100797,35.3461738 65.7244654,34.4811079 66.072205,33.4345265 C66.6563524,31.6814522 66.5353995,29.976287 65.2880729,28.5525045 C64.1939991,27.3048392 62.2408849,27.150315 60.8499267,28.0160557 C59.2136266,29.0349711 58.3703926,30.9850808 58.9036848,32.5222261 C59.2273713,33.4594933 59.9647715,33.9514068 60.8705437,33.7455994 L60.8705437,33.7455994 Z M63.1920144,11.5055769 C59.1442162,8.85977065 52.1495658,9.12225947 50.706378,12.0001895 C52.4292694,11.8456652 54.0318951,12.178331 55.4482808,13.0609412 C56.821371,13.9158855 58.1092443,14.9024116 59.4940174,15.8720682 C60.7056079,14.4415379 61.9460622,12.9772687 63.1920144,11.5055769 L63.1920144,11.5055769 Z M72.0476898,86.0611716 C71.2305706,85.4322781 70.3440409,84.8863823 69.6286321,84.1738163 C67.9847725,82.5374786 67.788224,80.7223246 68.9338403,78.9334869 C70.0024865,77.2661094 72.2284319,77.2715077 73.2805845,78.9442834 C73.3609907,79.0731661 73.4496437,79.1980001 73.6826154,79.5468605 C73.6826154,78.7027127 73.7685195,78.0947374 73.6647474,77.5191513 C73.4434586,76.2876807 73.018749,75.1378582 71.7748586,74.5076152 C69.8774102,73.5460559 68.110536,73.7444408 66.4934784,75.1115419 C64.1823161,77.0650255 62.6827753,81.3033088 65.9340713,83.8566704 C67.078313,84.7548005 68.6658197,85.1299773 70.0815182,85.6630523 C70.7158336,85.9012491 71.4278063,85.9417358 72.0476898,86.0611716 L72.0476898,86.0611716 Z M32.1428591,31.3029015 C32.0535189,31.2610652 31.9655532,31.2178794 31.876213,31.1760431 C31.6006328,31.6207221 31.1711126,32.0384099 31.0845214,32.5168279 C30.932643,33.356927 30.9663174,34.234139 30.9628813,35.095831 C30.9381409,40.1681405 30.932643,45.2404501 30.9072154,50.31141 C30.8769772,56.4957544 30.8329944,62.679424 30.7945093,68.8630936 C30.7945093,68.9191002 30.7883243,68.9751068 30.7945093,69.0304386 C30.8584219,69.5547415 30.5904014,69.8307258 30.1230834,70.0520532 C26.8504832,71.6033688 23.8933226,73.6013877 21.4220352,76.2296498 C20.4207378,77.2951249 19.5431421,78.4732881 18.6098807,79.600168 C18.675855,79.6534755 18.7418293,79.7074578 18.8078036,79.7607653 C19.539706,78.9692502 20.2544276,78.1608656 21.0069469,77.3875695 C23.9373055,74.3753586 27.3693436,72.141842 31.450129,70.9063227 C31.6659199,70.8408692 31.9311916,70.5446414 31.9566192,70.3307367 C32.0528317,69.5331485 32.0920039,68.7240892 32.0940656,67.9197533 C32.1153698,56.0470267 32.1284272,44.1743001 32.1428591,32.3015735 L32.1428591,31.3029015 Z M41.9654704,64.7779849 C42.9234722,63.8454411 43.4608879,63.0788928 43.443707,61.8764376 C43.3887285,58.1179217 43.484941,54.3573815 43.505558,50.5975161 C43.5351089,44.936125 43.5467919,39.2760835 43.5756556,33.6153672 C43.5894003,30.9972268 43.6306342,28.3790865 43.6498767,25.7609462 C43.6601852,24.3243429 43.6512512,22.8884143 43.6512512,21.4518111 C43.5543514,21.4173974 43.4567645,21.3823089 43.3598647,21.3478952 C42.9681423,21.9882599 42.3929289,22.5867884 42.2314293,23.2791111 C42.0197617,24.1833142 42.1214721,25.1603933 42.1132253,26.1064327 C42.0788637,30.2853356 42.0417532,34.4635636 42.0273213,38.6417917 C41.9991448,46.9739559 41.9860873,55.3054452 41.9661576,63.6369346 C41.9647831,63.9399101 41.9654704,64.2428856 41.9654704,64.7779849 L41.9654704,64.7779849 Z M60.4382746,69.7254604 C60.3262557,69.6728277 60.2795239,69.632341 60.229356,69.6296419 C56.5808397,69.4508256 52.9323234,69.199808 49.2810582,69.1201841 C45.9692857,69.0473081 42.6533899,69.1721421 39.340243,69.1687682 C39.0969628,69.1680934 38.7547211,68.8765891 38.6378916,68.636368 C38.5018196,68.356335 38.5403046,67.984532 38.5416791,67.6518663 C38.57123,60.3797791 38.6055917,53.1083666 38.639266,45.8356046 C38.6729404,38.4798449 38.7079893,31.1247599 38.7389147,23.7690002 C38.739602,23.6259472 38.6914957,23.4835689 38.6667553,23.3405159 C38.5760407,23.3168987 38.485326,23.2926066 38.3946113,23.2689894 C38.156829,23.8216329 37.7218109,24.3729269 37.7149386,24.9282696 C37.6737047,28.3527701 37.7506747,31.7786202 37.7472385,35.2044704 C37.7410534,41.6128412 37.7005067,48.021212 37.6867621,54.4295828 C37.6764536,59.5018923 37.6840131,64.5742018 37.6874493,69.6465113 C37.6874493,69.9386904 37.7231854,70.232219 37.757547,70.741002 C40.213028,70.741002 42.5901645,70.6876945 44.9652394,70.7517984 C49.3539048,70.8705594 53.7405086,71.0594974 58.1284868,71.2173955 C59.7125573,71.2740769 59.7125573,71.2713778 60.4382746,69.7254604 L60.4382746,69.7254604 Z M44.8236695,18.5968235 C43.5433557,19.3539249 42.310461,20.1852519 40.9854771,20.8350636 C39.9340117,21.3499195 39.553285,22.1569545 39.5464127,23.1772195 C39.5113638,28.2448056 39.5182362,33.3123916 39.4983064,38.3799777 C39.4879979,41.3037927 39.4522619,44.2276076 39.4343938,47.1507478 C39.3938471,53.8324039 39.3560493,60.5147347 39.3216877,67.1970656 C39.319626,67.4615787 39.349177,67.7274415 39.3780408,68.2483704 C40.2769406,67.0924749 41.2796125,66.3090572 41.1792766,64.8731287 C41.1016194,63.7691911 41.1435405,62.6551319 41.1469767,61.546471 C41.1572852,57.5632539 41.1696554,53.5800368 41.1882106,49.5974944 C41.2253212,41.7457725 41.2658679,33.8933759 41.3091635,26.041654 C41.3139741,25.1239553 41.2961061,24.1995089 41.396442,23.2892327 C41.4472972,22.82566 41.6445329,22.3141779 41.9372938,21.9491228 C42.8588724,20.7999751 43.8560464,19.7102079 44.8236695,18.5968235 L44.8236695,18.5968235 Z M19.6888354,72.9333571 C19.9169965,72.848335 20.15203,72.7754589 20.3733188,72.6749169 C23.2438881,71.3671963 25.539244,69.3934694 27.4140137,66.9042118 C27.8648381,66.3063581 28.0132802,65.7112035 28.0112185,64.9858167 C28.0022845,61.1409291 28.0428312,57.2960416 28.0572631,53.4511541 C28.0868141,45.7876954 28.1115544,38.1249114 28.134242,30.4614527 C28.1349203,30.2030126 28.0957481,29.9452472 28.0641354,29.5464532 C27.2662587,30.3136763 26.7034155,30.990479 26.7205963,32.0087197 C26.7391515,33.119405 26.6862347,34.2307651 26.6711156,35.3428 C26.663556,35.9689943 26.6697411,36.5965383 26.6697411,37.2173344 C22.6597406,37.3826552 18.4566279,39.5048333 17.5652876,41.7700646 C20.5788012,41.3658723 23.5881915,41.2012263 26.625071,41.7950314 L26.625071,49.7324501 C24.8100905,49.9267863 23.0225993,49.9517531 21.3230738,50.3464985 C19.5438294,50.7601377 18.131567,51.9173827 16.812081,53.3641077 C20.2015107,53.0422383 23.4095111,52.9511433 26.5941455,53.990302 C26.5941455,54.3384877 26.5975817,54.6704787 26.5934583,55.0024697 C26.5673435,57.3135858 26.4580735,59.6280759 26.5384797,61.9358181 C26.6023923,63.7712155 26.2395337,65.4615355 25.3103956,67.0270214 C23.8981332,69.4042659 22.1030825,71.4420967 19.6888354,72.9333571 L19.6888354,72.9333571 Z M47.3389397,14.0245248 C45.23326,15.0306195 43.0712271,15.7053979 40.7332629,15.808639 C38.9079739,15.8896124 37.1053635,15.8997341 35.4024019,15.1298119 C33.0486313,14.063662 31.4164546,12.3814393 30.8226859,9.73833218 C28.6125468,12.3942601 26.477316,14.9590929 24.3448342,17.5205519 C31.6679816,23.8715665 42.2486101,22.3296978 47.3389397,14.0245248 L47.3389397,14.0245248 Z M44.4587492,34.1774576 C44.7590697,33.8481657 44.9150714,33.6943162 45.0511434,33.5249468 C47.3059526,30.7057225 49.5346469,27.8655801 51.8169454,25.0679487 C53.9789782,22.4194433 56.191179,19.8107499 58.3965074,17.1966582 C58.6665897,16.8761385 58.8342744,16.6392912 58.4466754,16.2965038 C56.558161,14.6264272 54.617417,13.021804 51.9475195,12.7930542 C50.8005288,12.6945365 49.5669468,12.6729436 48.8178636,13.7971245 C48.2495225,14.6493696 47.3767375,15.2688162 47.1870614,16.4341586 C47.0750425,17.1204083 46.3658188,17.7418792 45.8503946,18.3282617 C44.8216078,19.4976527 44.5260979,20.8748755 44.5137277,22.3573637 C44.5020448,23.7764228 44.4663087,25.194807 44.4608108,26.6125165 C44.4518768,29.0552145 44.4587492,31.4972376 44.4587492,34.1774576 L44.4587492,34.1774576 Z M52.6375007,25.7474506 C52.5777115,25.7137117 52.5186096,25.6799727 52.4588203,25.6462338 C52.2801399,25.8412448 52.0973362,26.0322071 51.9248409,26.2312667 C49.5483916,28.9580464 47.1636955,31.678753 44.8112993,34.4251013 C44.5838254,34.690964 44.4511896,35.117424 44.4456917,35.4716826 C44.3639111,41.068295 44.2999985,46.6649073 44.2539539,52.2621945 C44.2299008,55.2156997 44.2491433,58.1705545 44.2525795,61.1247345 C44.2525795,61.3588826 44.2883155,61.5937055 44.3240516,62.0296123 C47.7169175,58.1381651 50.9812709,54.3938195 54.0944332,50.8242416 C53.1611718,50.1379919 52.0100577,49.6386559 51.3977337,48.7715656 C49.996467,46.7843431 49.8816992,44.5771429 51.0788579,42.3841129 C51.9805067,40.7336049 53.9294975,39.9177977 55.782963,40.4083617 C57.197287,40.7835385 58.1752186,41.6735712 58.4700413,43.044721 C58.7600533,44.3915788 58.2611226,45.6648857 57.3099931,46.6554604 C56.2282895,47.78369 54.2634924,47.6116215 53.4113243,46.4159141 C54.8854376,47.1183584 56.1739982,46.9813784 56.9168963,46.0420868 C57.8721492,44.8349082 57.9415596,43.1121989 57.0770214,42.0953078 C55.5946613,40.3530298 52.4182736,41.0068901 51.5606077,43.2707718 C51.0163198,44.7073751 51.0541175,46.1844651 51.7296669,47.5792321 C51.987379,48.1129819 52.3605461,48.6696741 52.8347364,49.0124615 C55.4613383,50.9166863 59.7586018,49.5893971 60.5674742,45.7242662 C61.1275686,43.0480949 60.1681923,40.8010827 58.3965074,38.9069797 C57.4350694,37.8786173 56.11146,37.1842703 54.9953948,36.2854654 C53.1735419,34.8171475 51.9633259,32.988498 51.7763987,30.615977 C51.7317286,30.0538866 51.7186712,29.4884222 51.6843095,28.7907013 C51.2190533,29.275867 50.8431372,29.6672385 50.4679084,30.0599596 C50.8273309,29.2934113 51.3345083,28.6530465 51.7138605,27.9458787 C52.0890894,27.2481578 52.3344313,26.4829591 52.6375007,25.7474506 L52.6375007,25.7474506 Z M69.1427589,63.6713483 C69.1207674,63.6268129 69.098776,63.5822775 69.0767846,63.5384169 C67.5538778,64.4851311 65.9436925,65.3225311 64.5314301,66.4075748 C62.8937556,67.6653618 61.5887014,69.2747084 60.6684974,71.1269752 C60.2905196,71.8881253 59.800523,72.1445411 58.9449188,72.0966318 C55.3534428,71.898247 51.7585306,71.7342758 48.1629312,71.6134905 C44.8188589,71.5008025 41.4727248,71.4555923 38.1265907,71.3881145 C36.923247,71.3631477 36.8675812,71.3213114 36.8696429,70.1674403 C36.8840747,60.9411947 36.884762,51.7156239 36.9211853,42.4893784 C36.9424895,37.3651109 37.0242701,32.2394939 37.0764998,27.1138769 C37.0826849,26.5274945 37.077187,25.941112 37.077187,25.1239553 C35.6401843,26.8318195 34.370179,28.3251042 33.1290375,29.8420061 C32.9922782,30.0093512 32.9854059,30.3109771 32.9840315,30.5498487 C32.9469209,37.1539053 32.9159955,43.7572871 32.8898806,50.3613436 C32.8630786,56.9950904 32.8211574,63.6274877 32.8458978,70.2598849 C32.8493339,71.1121301 32.4706689,71.5028268 31.7903089,71.7045856 C27.4896092,72.9812664 23.9455523,75.3834776 20.9815193,78.6521043 C20.0125218,79.7202786 19.0861327,80.8255657 18.140501,81.9139833 C18.9026416,81.6487954 19.5527634,81.2884637 20.2070085,80.9362293 C23.9414289,78.9199914 27.9569272,77.748576 32.1847803,77.4536978 C36.3645271,77.1621936 40.5600803,76.9982224 44.7501356,76.9685321 C49.8253462,76.9334437 54.9026184,77.078521 59.9764545,77.1945829 C60.868482,77.2148263 61.1797982,76.9361428 61.3467957,76.0791742 C62.0202833,72.6276825 63.5108902,69.5048079 65.7643249,66.7901742 C66.7326352,65.6241571 68.0074511,64.7030845 69.1427589,63.6713483 L69.1427589,63.6713483 Z M80.473845,76.7114416 C78.1393169,77.6082221 75.3196028,76.2674373 74.2262162,73.8591531 C73.4118459,72.065592 73.5176797,70.3530043 74.6337449,68.7038459 C75.5807511,67.3050302 77.6287033,66.5114907 79.1880334,67.0897758 C79.7220129,67.2881607 80.1625288,67.7874967 80.5693703,68.2186802 C80.6923849,68.3495872 80.6477148,68.7881932 80.51233,68.9508148 C80.3906899,69.0972417 80.038827,69.0877948 79.7873,69.0891443 C79.6299238,69.0904939 79.4539923,69.0095205 79.3144841,68.9217993 C78.115951,68.1707709 76.9229157,68.3435142 75.7931058,69.0209917 C74.6543619,69.7038675 74.4722454,70.8186015 74.5725813,72.023081 C74.7382043,74.0082791 76.4466638,75.8477252 78.370227,76.0960436 C80.6916977,76.3949705 82.7527073,74.6965531 83.1093809,72.0763885 C83.5258437,69.0270647 82.1128941,66.6822097 79.755,64.9338587 C77.3737401,63.1699879 74.5973216,62.5579639 71.7301885,63.5775541 C68.4465926,64.7462703 66.1244346,67.0594108 64.507377,70.089166 C63.3404566,72.2754481 62.4065079,74.5366307 62.0264684,76.9854016 C61.9151368,77.699992 61.4471316,77.9489852 60.8519884,77.9456113 C57.9312511,77.9300914 55.0105139,77.8700361 52.0890894,77.8268503 C50.726995,77.8059322 49.3649005,77.7721933 48.0028061,77.772868 C44.8807098,77.7735428 41.7558645,77.7236092 38.6358299,77.8207773 C33.8121464,77.9699033 28.9960224,78.3052682 24.421117,79.9935639 C22.80887,80.5880437 21.2076188,81.2884637 19.7417523,82.1677 C18.6277487,82.8357306 17.6876149,83.8148342 16.7612258,84.7433293 C15.9337981,85.5699329 15.2328212,86.5173218 14.288564,87.3547218 C14.6356163,86.2440365 14.8933284,85.097588 15.3441528,84.0294137 C18.0944565,77.5036314 22.7786318,72.7383461 29.1843241,69.5844317 C29.7670971,69.2976509 29.9911348,68.9845537 29.991822,68.322596 C29.9959454,62.2482405 30.050924,56.1745598 30.0784133,50.1008791 C30.1017792,45.054886 30.1038409,40.0102424 30.1272068,34.964924 C30.1299557,34.3900128 30.2117364,33.8164511 30.2680894,33.0930886 C29.3375769,33.6383096 28.9726565,34.21592 28.974031,35.1525124 C28.982965,41.3105404 28.9307354,47.4692432 28.8977482,53.6272712 C28.8778185,57.3614951 28.8269633,61.0970685 28.8572015,64.8306176 C28.8654483,65.8380618 28.6001766,66.7233711 28.0160292,67.4811473 C24.4279893,72.1398176 19.7671799,74.8598495 13.6996059,74.9327256 C13.0151225,74.9408229 12.3278902,74.7775266 11.5588773,74.6837324 C18.3452962,74.0561884 22.7758829,70.4872853 25.6024693,64.7246774 C25.6863117,64.5532837 25.7591583,64.3548988 25.7598455,64.1679852 C25.7770263,61.2475441 25.7639689,58.3264283 25.8010795,55.4059872 C25.808639,54.8162308 25.6079672,54.5719611 25.0327537,54.4430784 C22.1113292,53.7905676 19.1974643,53.7298376 16.2726036,54.4174368 C15.9791554,54.486939 15.6430988,54.3809988 15.326972,54.3573815 C15.4286824,54.066552 15.4644184,53.7257889 15.6444733,53.4923156 C17.4202816,51.1899715 19.675778,49.5759015 22.6356875,49.1372955 C23.6294254,48.9901938 24.6643972,49.1143531 25.7529732,49.1143531 L25.7529732,42.4414691 C24.8052799,42.3544227 23.8252866,42.1641352 22.8535401,42.1992236 C21.2454165,42.2572546 19.6407291,42.4461926 18.0387906,42.6128628 C17.6807426,42.6506504 17.3433116,42.8449866 16.9873252,42.932033 C16.6347751,43.0184047 16.2712292,43.0588914 15.9124939,43.1202962 C15.9887767,42.7417455 15.9523534,42.2842457 16.1598975,41.9974649 C18.4442577,38.8368027 21.4144757,36.7341931 25.4540271,36.3394477 C25.5626099,36.329326 25.6705053,36.305034 25.8182603,36.2814168 L25.8182603,32.1308546 C25.2602276,32.7671707 24.779165,33.3157655 24.2974152,33.8643604 C24.1853963,33.765168 24.0740647,33.6659755 23.9620458,33.5667831 C25.8526219,31.2711869 27.7431979,28.9755906 29.7244887,26.5700055 C29.4495957,27.8939208 29.1320944,28.9789645 29.0200755,30.0849264 C28.9066822,31.2111316 28.9953352,32.3575801 28.9953352,33.4932323 C32.3469671,29.553201 35.6656119,25.6502825 39.0612267,21.6582933 C33.3771283,23.1434806 28.3369666,21.8809701 23.7483166,18.2472883 C22.4975538,19.7425973 21.2522889,21.2318333 20.0063367,22.7203945 C20.0757472,22.7986688 20.1437832,22.8776179 20.2131936,22.9558922 C21.2220506,22.1792222 22.2309077,21.4018775 23.2521349,20.6150858 C22.39172,22.1414346 21.1004105,23.1691222 19.5177145,23.9316218 C18.9335671,24.2136792 18.3885919,24.6624069 17.9563228,25.1475726 C15.4912205,27.9121398 13.0659777,30.710446 10.6228669,33.4945818 C10.5218438,33.6092941 10.3830228,33.6909423 10.1699808,33.6997145 C12.4584644,30.7765743 14.7462607,27.8527593 17.034057,24.9296191 C16.9598359,24.8675395 16.8842404,24.8054599 16.8093321,24.7433803 C15.1077449,26.6664988 13.4075322,28.5902921 11.705945,30.5134107 C11.6619621,30.4783222 11.617292,30.4432337 11.5726219,30.4081452 C12.9532716,28.6564204 14.3346085,26.9060452 15.7303773,25.1361013 C14.5318442,24.9505373 13.4089066,24.8418979 12.3175817,24.594929 C10.3816484,24.1569978 8.68212289,23.3411907 7.70900195,21.4868995 C7.59767032,21.2743443 7.30422213,21.1164462 7.05956743,21.0125303 C3.48802117,19.4942788 1.13150161,16.8882845 0.250469806,13.1904987 C-1.10062889,7.51966068 3.08461581,-0.350280226 11.1073657,0.0120757944 C12.9175355,0.0937239852 14.4411296,0.872418301 15.4822865,2.38797067 C15.6987647,2.70241742 15.957164,3.12415394 15.9021854,3.44737281 C15.8279643,3.87990579 15.5338289,4.34145424 15.1922745,4.6275603 C15.0740705,4.72675273 14.4493763,4.41433031 14.2012855,4.15589017 C13.626072,3.55533736 13.2178561,2.7874395 12.6014087,2.24086897 C10.7747452,0.622075501 8.76596523,0.666610878 6.62317492,1.68822543 C3.03788401,3.39676443 1.50947938,6.43529173 0.908838349,10.0602015 C0.550790321,12.2248907 1.39333712,14.9725885 2.62554463,16.3180967 C2.62554463,15.068407 2.46404504,13.7370692 2.65509562,12.4563397 C3.27635362,8.28013598 7.13310128,5.11137644 11.4406733,5.03850037 C14.1655494,4.99329021 16.4732755,5.73014827 18.0030546,8.11144137 C19.9712879,11.1742607 19.0235945,15.4901436 15.9633491,17.3194679 C15.5943054,17.5401205 15.1640979,17.6615806 14.7228948,17.7600982 C16.8876765,16.7836938 18.1453116,15.1372344 18.3672877,12.848386 C18.5837659,10.6243163 17.8827889,8.67825525 16.0973594,7.17687323 C14.1889153,5.57225011 10.3617186,5.45213955 8.24985377,6.83206145 C6.20190152,8.16947231 5.38684401,10.1108099 5.04735125,12.3686185 C4.7545903,14.31333 4.81506674,16.2067583 5.82048759,17.9659057 C6.12080811,18.4908833 6.52627516,18.95783 7.02383135,19.6454292 C7.0994269,18.9625534 7.10836092,18.507078 7.20526067,18.0718459 C7.95778004,14.706051 12.200065,12.4684857 15.4987801,13.6891599 C16.0678084,13.899016 16.6931898,14.1378876 16.6107219,14.8652987 C16.5248179,15.6298227 15.9145556,16.0171455 15.1977723,16.1048667 C14.6149993,16.1757185 14.0081732,16.1149884 13.4178407,16.0549331 C11.0839998,15.8174111 9.32193616,17.1696671 9.01474332,19.4591903 C8.88210748,20.4484155 9.13088558,20.7689353 10.1383681,20.8681277 C13.1951774,21.1711032 16.0403191,20.4754067 18.7782526,19.1670113 C20.9038621,18.1507949 22.6336258,16.7607514 24.1455369,14.9354757 C28.0270249,10.2484647 32.0748231,5.69371023 36.0587088,1.0883474 C36.1425511,0.991179306 36.2525083,0.915604121 36.3500953,0.829907259 C36.4071355,0.878491307 36.464863,0.927075354 36.5219033,0.974984623 C33.3214625,4.95280351 30.1203345,8.93129717 26.9192064,12.9097908 C26.9508191,12.936782 26.9824318,12.9637731 27.0133572,12.991439 C30.3072616,9.19783465 33.6011661,5.4035555 36.8943832,1.61062591 C36.9521107,1.6484135 37.0098383,1.6862011 37.0668785,1.72331391 C37.0235829,1.83802624 37.0057149,1.97230715 36.9328682,2.06407702 C35.4546316,3.93051418 34.0471798,5.85970573 32.4555498,7.62964956 C31.5078565,8.68365348 31.5504649,9.68030123 32.0466466,10.7909865 C33.2733562,13.5413834 35.6154439,14.770155 38.4976962,15.0029535 C41.3765123,15.2357521 44.0567183,14.4577326 46.7465455,13.387534 C48.5546537,12.6682201 49.6494147,11.2093492 51.2142427,10.3112191 C54.7081317,8.30577756 58.3319076,8.22682848 61.9598069,9.90837634 C63.7960916,10.7599467 63.7363024,10.8227011 65.072282,9.28758018 C66.1656686,8.03249229 67.3181571,6.827338 68.4445309,5.59991603 C68.5118796,5.65457308 68.5806029,5.70923013 68.6479516,5.76388719 C67.4672865,7.31182892 66.3264809,8.89013568 65.0963351,10.399615 C62.4367461,13.6608192 59.6988126,16.8599438 57.0612151,20.1373427 C55.9630178,21.5017447 55.0386904,23.0004276 54.0353312,24.4370309 C54.1267331,24.5031591 54.2174478,24.5699622 54.3088497,24.6360905 C56.5299845,22.0017555 58.7360002,19.3545997 60.9763775,16.7364593 C63.2346228,14.0974009 65.5265425,11.4873579 67.8047176,8.8644941 C67.8686302,8.91037904 67.9318556,8.95491441 67.9957682,9.00079935 C67.699571,9.43265755 67.4315504,9.88813299 67.1009917,10.2943496 C63.0243297,15.2944578 58.9401082,20.288493 54.8531377,25.2805039 C54.3384007,25.9100722 53.7927382,26.5153484 53.2752523,27.1428924 C52.5378521,28.0383234 52.5729009,29.1112211 52.6148221,30.1699485 C52.7673876,33.9851457 56.286017,37.0925004 59.5716746,37.2180092 C62.226453,37.3185512 64.8145699,34.8738289 64.1610119,32.3697262 C63.9610273,31.6038526 63.5933581,30.9688861 62.7624942,30.7198929 C61.9330048,30.4708996 61.0244837,30.9445941 60.8018205,31.736784 C60.5647253,32.5768831 61.1557451,33.5856769 61.9934813,33.7482985 C62.2333253,33.795533 62.4827907,33.7908095 62.7508113,33.8110529 C61.8725284,34.9838178 59.8561888,34.9804439 58.8755083,33.8393936 C57.4467524,32.1780891 57.8288535,29.4229687 59.655517,27.8433124 C61.0801495,26.611167 62.6862114,26.3270853 64.4063539,26.9741978 C66.1780387,27.6408789 66.9621708,29.1058229 67.2102616,30.8676694 C67.7607347,34.797579 64.1060334,38.7092696 59.4534707,38.1330088 C59.3146498,38.1168141 59.1778905,38.0931969 58.9710336,38.0628318 C59.4782111,38.8172341 59.9785162,39.4987603 60.4107853,40.2194237 C61.6986586,42.3658939 61.8835241,44.6365234 61.0780878,46.9800289 C60.3571812,49.0758907 58.0570147,50.7156023 55.7967076,50.6595957 C54.889561,50.637328 54.3885686,50.9828146 53.8435934,51.645447 C51.0974132,54.9781777 48.2900692,58.2616495 45.5005933,61.5592918 C43.6395683,63.7590695 41.7716709,65.9527742 39.9017118,68.1559258 C40.4975422,68.5020871 40.7930521,68.0965453 41.1215491,67.710572 C44.7377655,63.4614922 48.3581052,59.2137619 51.9853173,54.9721047 C52.4471374,54.4329567 52.957751,53.9329459 53.4456859,53.414716 C53.5233432,53.4808443 53.6010004,53.5456231 53.6786577,53.6117513 C49.6287977,58.479603 45.5782506,63.3467798 41.4782227,68.2733372 C41.7812921,68.2733372 42.0809254,68.267939 42.3805587,68.2746868 C46.6867563,68.3792774 50.9943283,68.4744212 55.3005259,68.5958813 C56.9134601,68.6410915 58.5257071,68.7450073 60.1379541,68.8280051 C60.7076696,68.8570206 61.1138239,68.6863016 61.5206654,68.2267775 C64.0263144,65.4008054 66.9614836,63.172687 70.7714994,62.3258401 C76.9373476,60.9560398 83.3815249,64.5971443 85.3312029,70.5095529 C88.0141578,78.6467061 82.3245616,86.6725208 73.6324475,86.9896667 C70.8525928,87.0908835 68.3407588,86.0881627 65.8914629,84.9801765 C63.3693203,83.839801 60.9433903,82.4956423 58.4109393,81.378884 C55.9712646,80.3032872 53.8044212,80.7041056 52.2244741,82.3883525 C51.2596,83.4173897 51.0252538,84.6879975 51.5784758,85.9687269 C52.1351339,87.2595781 53.1790398,88.0564914 54.6545275,88.1435378 C55.9788242,88.2204626 57.0880171,87.7649871 57.6742263,86.547012 C57.9133831,86.0503751 57.9999744,85.4160834 57.9415596,84.8654642 C57.8790215,84.2669357 57.3862759,83.9842035 56.7292819,83.9012058 C56.3409956,83.8512722 55.9314052,83.5901329 55.646891,83.3107747 C55.537621,83.2028101 55.6819398,82.5894365 55.8310692,82.5374786 C56.2502809,82.3910517 56.782886,82.2695915 57.1801062,82.4011733 C58.2755545,82.7648789 59.0321973,84.2939268 58.8796317,85.5895014 C58.6700259,87.3567462 57.2419571,88.7933495 55.5163168,88.9721657 C53.3371032,89.1982165 51.3922358,88.0295003 50.7689161,86.117853 C49.7442528,82.9767593 51.9763833,79.9942386 55.3348875,79.9591502 C57.7683771,79.9341834 59.830074,80.9787404 61.8993304,82.03072 C62.5233374,82.3485406 63.1439081,82.673109 63.9108594,83.0698788 C63.6772004,82.4079211 63.4311712,81.9112842 63.3280864,81.3876561 C62.7137007,78.2492616 64.7142339,74.593312 67.7243114,73.3942308 C69.5832748,72.6539988 71.3281576,73.0683128 72.8345708,74.2471507 C74.2550799,75.3585108 74.4536901,76.9577357 74.311433,78.637934 C74.2028503,79.9186635 73.5616626,80.9315059 72.6194671,81.8640497 C72.6785691,81.5968374 72.7321732,81.3282756 72.7988347,81.0624129 C73.0428022,80.0826346 72.5466205,78.9260644 71.758365,78.6467061 C70.8360993,78.3201133 69.9770589,78.7580446 69.4073433,79.7918051 C68.6108411,81.2351562 69.0795335,82.8114386 70.8422844,84.1603207 C73.0737276,85.8681849 75.6680296,86.3270343 78.34961,85.0759951 C83.9642979,82.4558304 86.562036,76.1662206 84.4247435,70.4339778 C84.3292182,70.1795863 84.1897101,69.9413895 83.9388703,69.7112901 L80.473845,76.7114416 Z" id="Fill-1"></path>
        </g>
    </g>
</svg>