<?xml version="1.0" encoding="UTF-8"?>
<svg width="322px" height="362px" viewBox="0 0 322 362" version="1.1" xmlns="http://www.w3.org/2000/svg" xmlns:xlink="http://www.w3.org/1999/xlink">
    <!-- Generator: Sketch 63.1 (92452) - https://sketch.com -->
    <title>legacy-tattoo-main-logo</title>
    <desc>Created with Sketch.</desc>
    <defs>
        <path d="M49.45402,308 L50.97402,289.28 L49.29402,289.28 C46.5206867,295.04 43.7873533,299.306667 41.09402,302.08 C38.4006867,304.853333 34.7873533,306.24 30.25402,306.24 L30.25402,306.24 L27.37402,306.24 L27.37402,253.76 L35.85402,253.76 L35.85402,252 L7.05402,252 L7.05402,253.76 L11.77402,253.76 L11.77402,306.24 L7.05402,306.24 L7.05402,308 L49.45402,308 Z M98.72268,308 L99.36268,290.56 L97.76268,290.56 C96.48268,295.146667 94.12268,298.906667 90.68268,301.84 C87.24268,304.773333 83.0693467,306.24 78.16268,306.24 L78.16268,306.24 L75.12268,306.24 L75.12268,280.56 L77.04268,280.56 C79.8693467,280.56 82.0960133,281.413333 83.72268,283.12 C85.3493467,284.826667 86.64268,287.68 87.60268,291.68 L87.60268,291.68 L88.96268,291.68 L88.96268,268 L87.76268,268 C87.0693467,271.2 85.8693467,273.746667 84.16268,275.64 C82.4560133,277.533333 80.3493467,278.48 77.84268,278.48 L77.84268,278.48 L75.12268,278.48 L75.12268,253.76 L77.92268,253.76 C82.6693467,253.76 86.2693467,254.76 88.72268,256.76 C91.1760133,258.76 93.52268,262.453333 95.76268,267.84 L95.76268,267.84 L97.20268,267.84 L96.40268,252 L54.80268,252 L54.80268,253.76 L59.52268,253.76 L59.52268,306.24 L54.80268,306.24 L54.80268,308 L98.72268,308 Z M131.75134,308.8 C134.364673,308.8 137.524673,308.32 141.23134,307.36 C144.938007,306.4 147.164673,305.92 147.91134,305.92 C149.67134,305.92 151.03134,306.586667 151.99134,307.92 L151.99134,307.92 L153.19134,307.92 L153.19134,285.36 L156.31134,285.36 L156.31134,283.6 L133.27134,283.6 L133.27134,285.36 L138.39134,285.36 L138.39134,300.88 C138.39134,303.173333 138.03134,304.8 137.31134,305.76 C136.59134,306.72 134.924673,307.2 132.31134,307.2 C128.578007,307.2 125.71134,305.16 123.71134,301.08 C121.71134,297 120.71134,290.96 120.71134,282.96 L120.71134,282.96 L120.71134,276.64 C120.71134,260.693333 124.79134,252.72 132.95134,252.72 C136.204673,252.72 139.15134,254.2 141.79134,257.16 C144.43134,260.12 147.058007,264.186667 149.67134,269.36 L149.67134,269.36 L151.11134,269.36 L150.47134,252 L149.59134,252 C149.27134,252.586667 148.978007,253 148.71134,253.24 C148.444673,253.48 148.044673,253.6 147.51134,253.6 C146.978007,253.6 145.07134,253.186667 141.79134,252.36 C138.51134,251.533333 135.244673,251.12 131.99134,251.12 C123.564673,251.12 116.858007,253.68 111.87134,258.8 C106.884673,263.92 104.39134,271.186667 104.39134,280.6 C104.39134,290.013333 106.778007,297.066667 111.55134,301.76 C116.324673,306.453333 123.058007,308.8 131.75134,308.8 Z M169.34,308 L169.34,306.48 L163.34,306.48 L169.5,289.2 L185.34,289.2 L191.18,306.48 L185.5,306.48 L185.5,308 L211.66,308 L211.66,306.48 L207.98,306.48 L187.82,251.52 L181.26,251.52 L160.86,306.48 L157.1,306.48 L157.1,308 L169.34,308 Z M184.7,287.44 L170.22,287.44 L177.74,266.48 L184.7,287.44 Z M238.84866,308.8 C242.315327,308.8 245.72866,308.386667 249.08866,307.56 C252.44866,306.733333 254.381993,306.32 254.88866,306.32 C255.395327,306.32 255.781993,306.44 256.04866,306.68 C256.315327,306.92 256.60866,307.333333 256.92866,307.92 L256.92866,307.92 L257.80866,307.92 L258.36866,290.08 L256.92866,290.08 C252.021993,301.493333 246.635327,307.2 240.76866,307.2 C236.501993,307.2 233.275327,305.053333 231.08866,300.76 C228.901993,296.466667 227.80866,290.533333 227.80866,282.96 L227.80866,282.96 L227.80866,276.64 C227.80866,260.693333 231.941993,252.72 240.20866,252.72 C243.461993,252.72 246.355327,254.146667 248.88866,257 C251.421993,259.853333 253.88866,263.973333 256.28866,269.36 L256.28866,269.36 L257.72866,269.36 L257.08866,252 L256.20866,252 C255.88866,252.586667 255.595327,253 255.32866,253.24 C255.061993,253.48 254.661993,253.6 254.12866,253.6 C253.595327,253.6 251.76866,253.186667 248.64866,252.36 C245.52866,251.533333 242.341993,251.12 239.08866,251.12 C230.661993,251.12 223.955327,253.68 218.96866,258.8 C213.981993,263.92 211.48866,271.186667 211.48866,280.6 C211.48866,290.013333 213.875327,297.066667 218.64866,301.76 C223.421993,306.453333 230.155327,308.8 238.84866,308.8 Z M298.59732,308 L298.59732,306.48 L293.71732,306.48 L293.71732,280 L305.79732,253.28 L311.07732,253.28 L311.07732,252 L295.31732,252 L295.31732,253.28 L303.39732,253.28 L292.03732,278.32 L281.15732,253.28 L286.35732,253.28 L286.35732,252 L260.75732,252 L260.75732,253.28 L264.51732,253.28 L278.11732,281.52 L278.11732,306.48 L273.23732,306.48 L273.23732,308 L298.59732,308 Z" id="path-1"></path>
        <filter x="-2.3%" y="-8.7%" width="104.6%" height="124.3%" filterUnits="objectBoundingBox" id="filter-2">
            <feOffset dx="0" dy="2" in="SourceAlpha" result="shadowOffsetOuter1"></feOffset>
            <feGaussianBlur stdDeviation="2" in="shadowOffsetOuter1" result="shadowBlurOuter1"></feGaussianBlur>
            <feColorMatrix values="0 0 0 0 0   0 0 0 0 0   0 0 0 0 0  0 0 0 0.5 0" type="matrix" in="shadowBlurOuter1"></feColorMatrix>
        </filter>
    </defs>
    <g id="legacy-tattoo-main-logo" stroke="none" stroke-width="1" fill="none" fill-rule="evenodd">
        <g id="Group-7" transform="translate(54.000000, 15.000000)">
            <g id="Group-6" transform="translate(0.000000, 299.000000)"></g>
            <g id="Group-9" opacity="0.677548363">
                <path d="M47.591277,52.3821669 C47.4842765,52.2822694 47.3739837,52.1840095 47.2669833,52.0824743 C45.8035461,53.7807324 44.3401089,55.4806282 42.879964,57.1788863 C43.0182415,57.2918852 43.1581652,57.4065217 43.2964427,57.5227959 C44.7286029,55.8081611 46.160763,54.095164 47.591277,52.3821669 L47.591277,52.3821669 Z M23.1836465,52.5901503 C23.0700614,52.865278 22.9564763,53.1387679 22.8445374,53.4122579 C24.2799898,54.5668114 25.5524723,56.0947524 27.1854641,56.7989481 C30.8893266,58.4022217 34.8631595,58.9442887 38.9176542,58.434975 C39.2896866,58.3874827 39.7506117,58.2220786 39.9711973,57.951864 C42.7943636,54.4898412 45.5796682,50.9983404 48.3764958,47.515028 C40.3646298,51.4765384 32.140409,53.6841102 23.1836465,52.5901503 L23.1836465,52.5901503 Z M145.806186,81.8994322 C145.544446,81.5522474 145.3716,81.344264 145.223445,81.1215416 C142.96985,77.780706 143.409376,74.729737 146.365881,73.1330141 C149.587418,71.390539 153.260003,72.684294 154.812333,76.1119258 C156.590187,80.0423207 155.879046,83.7123269 153.597466,87.2480446 C155.961354,85.7839725 157.433022,83.6844866 158.265979,81.1444689 C159.665216,76.8898165 159.375492,72.7514382 156.38771,69.2959661 C153.767021,66.2679244 149.088631,65.8928992 145.756801,67.9940228 C141.837292,70.4668962 139.817452,75.1997467 141.094873,78.9303465 C141.870215,81.2050625 143.636546,82.3989199 145.806186,81.8994322 L145.806186,81.8994322 Z M151.366918,27.9236473 C141.671029,21.5023647 124.916402,22.1394162 121.459464,29.1240554 C125.586389,28.7490302 129.425237,29.5563988 132.817975,31.698464 C136.107005,33.773385 139.191911,36.1676505 142.508925,38.5209744 C145.411107,35.0491256 148.382428,31.4953936 151.366918,27.9236473 L151.366918,27.9236473 Z M172.57935,208.867562 C170.622064,207.341259 168.498517,206.016389 166.784863,204.287015 C162.847246,200.315678 162.376444,195.910361 165.120594,191.568912 C167.680375,187.522243 173.01229,187.535344 175.532563,191.595115 C175.725164,191.907909 175.937519,192.210877 176.495567,193.057549 C176.495567,191.008831 176.701337,189.533295 176.452767,188.136367 C175.922703,185.14763 174.905376,182.357049 171.925824,180.827471 C167.380773,178.493799 163.148493,178.975272 159.275076,182.29318 C153.739036,187.034219 150.147113,197.32039 157.935101,203.517312 C160.675959,205.697044 164.478591,206.607585 167.869683,207.90134 C169.38909,208.479436 171.094513,208.577696 172.57935,208.867562 L172.57935,208.867562 Z M76.9933602,75.9710867 C76.7793593,75.8695515 76.5686506,75.7647409 76.3546497,75.6632057 C75.6945391,76.7424267 74.6656884,77.756141 74.4582721,78.9172451 C74.0944705,80.9561375 74.1751324,83.0851013 74.1669016,85.1763989 C74.1076398,97.4867231 74.0944705,109.797047 74.0335626,122.104096 C73.9611315,137.113292 73.8557772,152.120849 73.7635922,167.128407 C73.7635922,167.264333 73.7487767,167.400259 73.7635922,167.534548 C73.9166851,168.807013 73.2746823,169.476818 72.1552928,170.013972 C64.3162737,173.778962 57.2328425,178.628087 51.3132472,185.00679 C48.9147905,187.592663 46.8126428,190.452025 44.577156,193.186925 C44.7351875,193.3163 44.893219,193.447313 45.0512504,193.576689 C46.804412,191.655708 48.5164195,189.693786 50.3189659,187.817023 C57.3381968,180.506488 65.5591253,175.085819 75.3340298,172.087255 C75.8509244,171.928402 76.4863426,171.209467 76.5472506,170.690327 C76.7777131,168.754608 76.8715443,166.791048 76.8764828,164.838952 C76.9275138,136.024245 76.9587908,107.209537 76.9933602,78.3948302 L76.9933602,75.9710867 Z M100.521941,157.213986 C102.816689,154.950733 104.103987,153.090347 104.062833,150.172028 C103.93114,141.050237 104.161603,131.923533 104.210988,122.798466 C104.281773,109.058461 104.309757,95.3217306 104.378896,81.583363 C104.411819,75.2292246 104.510589,68.8750863 104.556681,62.520948 C104.581374,59.0343602 104.559974,55.5494101 104.559974,52.0628223 C104.327865,51.9793014 104.09411,51.8941429 103.862002,51.810622 C102.92369,53.3647656 101.545853,54.8173741 101.159005,56.4976179 C100.651987,58.6920883 100.895619,61.0634265 100.875865,63.3594322 C100.793557,73.5014886 100.704665,83.6419073 100.670095,93.782326 C100.602603,114.004207 100.571325,134.224451 100.523587,154.444695 C100.520294,155.180007 100.521941,155.915318 100.521941,157.213986 L100.521941,157.213986 Z M144.770751,169.221342 C144.502426,169.093604 144.390488,168.995344 144.270318,168.988794 C135.530849,168.554813 126.791379,167.945601 118.045325,167.752357 C110.112475,167.575489 102.169748,167.878457 94.2336053,167.870269 C93.6508643,167.868631 92.831076,167.16116 92.5512287,166.578152 C92.2252888,165.898521 92.3174738,164.996168 92.3207661,164.188799 C92.391551,146.539689 92.4738591,128.892216 92.554521,111.241467 C92.6351829,93.3892865 92.7191371,75.5387432 92.7932143,57.6865623 C92.7948605,57.3393774 92.6796292,56.9938302 92.6203674,56.6466453 C92.4030742,56.5893271 92.1857809,56.5303712 91.9684876,56.4730529 C91.3989159,57.8143001 90.3568959,59.152272 90.3404343,60.5000699 C90.2416647,68.8112174 90.4260347,77.1256402 90.4178039,85.4400629 C90.4029884,100.992963 90.3058649,116.545863 90.2729417,132.098763 C90.2482493,144.409087 90.2663571,156.719411 90.2745879,169.029735 C90.2745879,169.738844 90.3601883,170.451228 90.4424963,171.686027 C96.3242299,171.686027 102.018301,171.556652 107.707434,171.71223 C118.219819,172.000459 128.727265,172.459005 139.238003,172.842218 C143.032405,172.979782 143.032405,172.973232 144.770751,169.221342 L144.770751,169.221342 Z M107.368325,45.1338638 C104.301527,46.9713233 101.348314,48.988926 98.1745149,50.565997 C95.6558885,51.815535 94.7439152,53.7741818 94.7274536,56.2503305 C94.6434994,68.5491911 94.659961,80.8480516 94.6122223,93.1469122 C94.5875299,100.242913 94.5019296,107.338913 94.4591294,114.433276 C94.3620059,130.64943 94.271467,146.867221 94.1891589,163.085013 C94.1842205,163.726978 94.2550054,164.372217 94.3241442,165.636494 C96.4773229,162.831175 98.8790719,160.929847 98.6387324,157.444897 C98.4527162,154.765677 98.553132,152.061893 98.5613628,149.37121 C98.5860552,139.704077 98.6156861,130.036943 98.6601325,120.371447 C98.7490252,101.315583 98.8461487,82.2580808 98.9498568,63.2022164 C98.9613799,60.9749927 98.9185798,58.7313923 99.1589193,56.5221828 C99.2807352,55.3971073 99.7531834,54.1557576 100.454448,53.2697811 C102.66195,50.4808384 105.05053,47.8360102 107.368325,45.1338638 L107.368325,45.1338638 Z M47.161629,177.006799 C47.7081544,176.800454 48.2711415,176.623586 48.8012054,176.379574 C55.6772203,173.20578 61.1753983,168.415611 65.6661258,162.374267 C66.7460074,160.923296 67.1015782,159.478876 67.0966397,157.718387 C67.0752396,148.386974 67.1723632,139.055562 67.2069325,129.724149 C67.2777175,111.125193 67.3369793,92.527875 67.3913239,73.928919 C67.3929487,73.3016935 67.2991176,72.6761057 67.2233941,71.7082459 C65.3122011,73.5702705 63.9639952,75.212848 64.0051492,77.6840838 C64.0495956,80.3796796 63.9228412,83.076913 63.8866256,85.7757841 C63.8685178,87.2955368 63.8833333,88.8185648 63.8833333,90.3252162 C54.2779833,90.726444 44.2100621,95.8768989 42.0749912,101.374539 C49.2934076,100.393578 56.501947,99.9939875 63.7763328,101.435132 L63.7763328,120.69898 C59.4288214,121.170627 55.1471564,121.231221 51.0762,122.189255 C46.814289,123.193143 43.4314279,126.001738 40.2707986,129.51289 C48.3896651,128.731725 56.0739451,128.51064 63.7022556,131.032643 C63.7022556,131.877678 63.7104864,132.683409 63.7006094,133.48914 C63.6380553,139.098141 63.3763157,144.71533 63.5689165,150.316143 C63.7220095,154.77059 62.8528365,158.87294 60.6272267,162.672322 C57.2443656,168.441814 52.9445929,173.387561 47.161629,177.006799 L47.161629,177.006799 Z M113.393274,34.037049 C108.349437,36.4788068 103.170614,38.1164713 97.5703738,38.367034 C93.19817,38.5635537 88.8802894,38.5881187 84.8011023,36.7195435 C79.1630005,34.1320335 75.2533679,30.0493359 73.8310848,23.6346039 C68.5370307,30.0804515 63.4224082,36.3052143 58.3143703,42.5217888 C75.8558629,57.9354873 101.200159,54.1934239 113.393274,34.037049 L113.393274,34.037049 Z M106.494213,82.9475375 C107.213585,82.1483572 107.587264,81.7749697 107.913204,81.3639159 C113.314258,74.5217536 118.652759,67.6288236 124.11966,60.8390665 C129.298483,54.4112333 134.597475,48.0800222 139.880006,41.7357099 C140.526947,40.9578192 140.928611,40.382999 140.000176,39.5510654 C135.476525,35.4978457 130.827766,31.6034795 124.43243,31.0483112 C121.684988,30.8092122 118.730128,30.7568069 116.935813,33.485156 C115.574438,35.5535263 113.483813,37.0569023 113.029473,39.885149 C112.761148,41.5506538 111.06231,43.0589428 109.827689,44.4820733 C107.363386,47.3201459 106.655537,50.6626192 106.625906,54.2605681 C106.597921,57.7045766 106.512321,61.1469474 106.499152,64.5876806 C106.477751,70.5160262 106.494213,76.442734 106.494213,82.9475375 L106.494213,82.9475375 Z M126.085176,62.4881947 C125.94196,62.4063114 125.80039,62.3244282 125.657174,62.242545 C125.229172,62.71583 124.791294,63.1792891 124.378107,63.6624001 C118.685682,70.2802025 112.973503,76.8832658 107.338694,83.5485604 C106.793814,84.1938002 106.476105,85.2288042 106.462936,86.0885781 C106.267043,99.6713676 106.11395,113.254157 106.003657,126.838584 C105.946041,134.006642 105.992134,141.177975 106.000365,148.34767 C106.000365,148.91594 106.085965,149.485847 106.171566,150.543778 C114.298663,141.099367 122.117928,132.011967 129.575038,123.348721 C127.339551,121.683216 124.582231,120.471345 123.115502,118.366946 C119.758979,113.544024 119.48407,108.187223 122.351683,102.864813 C124.511446,98.859086 129.179959,96.8791496 133.619656,98.0697317 C137.007455,98.9802732 139.349942,101.140353 140.056145,104.468087 C140.750825,107.736865 139.555712,110.827138 137.277425,113.23123 C134.686368,115.969405 129.979993,115.5518 127.938754,112.649859 C131.469769,114.354668 134.556321,114.022222 136.335821,111.742593 C138.623985,108.812811 138.790247,104.631853 136.719377,102.163893 C133.168607,97.9354432 125.560051,99.5223401 123.505642,105.016705 C122.201882,108.503292 122.292421,112.08814 123.910597,115.473193 C124.527908,116.768585 125.421773,118.119658 126.557624,118.951592 C132.849252,123.573081 143.142697,120.351795 145.080229,110.971253 C146.42185,104.476275 144.123809,99.0228525 139.880006,94.4259281 C137.577027,91.9301274 134.406521,90.2449706 131.733155,88.0636015 C127.369182,84.5000435 124.470292,80.0619726 124.022536,74.3039442 C123.915536,72.9397696 123.884259,71.5674068 123.801951,69.8740617 C122.6875,71.0515425 121.78705,72.0013879 120.888246,72.9545086 C121.749188,71.0941217 122.964055,69.5399781 123.872736,67.8237057 C124.77154,66.1303606 125.359219,64.273249 126.085176,62.4881947 L126.085176,62.4881947 Z M165.621027,154.528216 C165.56835,154.42013 165.515673,154.312044 165.462996,154.205596 C161.815103,156.503239 157.958147,158.535581 154.575286,161.168946 C150.652484,164.221552 147.526424,168.127382 145.322215,172.622771 C144.416826,174.470057 143.243113,175.092369 141.193643,174.976095 C132.590805,174.494622 123.979736,174.096669 115.367021,173.803527 C107.356801,173.530037 99.3416432,173.420314 91.3264848,173.256547 C88.4440567,173.195954 88.3107177,173.094419 88.3156562,170.294012 C88.3502256,147.902225 88.3518717,125.512076 88.4391183,103.120289 C88.4901493,90.6838647 88.6860424,78.244165 88.8111507,65.8044653 C88.8259661,64.3813349 88.8127968,62.9582044 88.8127968,60.9749927 C85.370674,65.1199216 82.3285683,68.7440731 79.3556014,72.425543 C79.0280153,72.8316838 79.0115537,73.5637198 79.0082614,74.1434531 C78.9193687,90.1712757 78.8452914,106.197461 78.7827373,122.225283 C78.718537,138.325163 78.6181212,154.421768 78.677383,170.518372 C78.6856138,172.586743 77.778579,173.53495 76.1488796,174.024612 C65.8472035,177.123073 57.3579507,182.953159 50.258058,190.886006 C47.9369708,193.478429 45.7179457,196.160923 43.452828,198.802476 C45.2784207,198.158874 46.8356891,197.284361 48.4028344,196.4295 C57.3480738,191.536159 66.966593,188.693173 77.093776,187.977514 C87.1057278,187.270043 97.1555412,186.87209 107.192185,186.800033 C119.349085,186.714875 131.510923,187.066972 143.66453,187.348651 C145.801248,187.397781 146.546959,186.721425 146.946976,184.641591 C148.560214,176.264937 152.130737,168.685826 157.528499,162.097501 C159.84794,159.267617 162.901569,157.032205 165.621027,154.528216 L165.621027,154.528216 Z M192.762931,186.176083 C187.170922,188.352539 180.416723,185.0985 177.797681,179.253675 C175.84698,174.900763 176.100489,170.74437 178.773854,166.741918 C181.042264,163.347039 185.947824,161.421146 189.682964,162.824624 C190.962031,163.306098 192.01722,164.51797 192.991747,165.564437 C193.28641,165.882144 193.17941,166.946626 192.855116,167.341303 C192.563746,167.696676 191.720911,167.673749 191.118416,167.677024 C190.741445,167.6803 190.320028,167.48378 189.985857,167.270884 C187.114952,165.448163 184.257217,165.867405 181.550928,167.51162 C178.823239,169.168937 178.387006,171.874359 178.627346,174.79759 C179.024071,179.615599 183.116427,184.079872 187.724032,184.682533 C193.284764,185.408018 198.221601,181.286017 199.075959,174.926965 C200.073533,167.526359 196.689025,161.835475 191.041047,157.592286 C185.337098,153.311431 178.686608,151.82607 171.818824,154.300581 C163.953466,157.137016 158.391088,162.75093 154.517671,170.104043 C151.722489,175.410076 149.485356,180.89789 148.575029,186.840975 C148.308351,188.575261 147.187315,189.17956 145.76174,189.171371 C138.765555,189.133705 131.76937,188.987953 124.77154,188.883142 C121.508848,188.832375 118.246157,188.750492 114.983466,188.752129 C107.504956,188.753767 100.019862,188.63258 92.5462902,188.868403 C80.9918855,189.230327 69.4555886,190.044246 58.4970942,194.141683 C54.6352003,195.584466 50.799645,197.284361 47.2883834,199.418238 C44.6199562,201.039526 42.3680079,203.415777 40.1489827,205.669204 C38.1670048,207.675343 36.4879205,209.974624 34.2260951,212.006965 C35.0574065,209.31137 35.6747169,206.528978 36.7545986,203.936555 C43.3425352,188.098701 54.5627692,176.533514 69.9066367,168.87907 C71.3025813,168.183063 71.8392298,167.423186 71.840876,165.816638 C71.850753,151.074382 71.9824459,136.333763 72.0482923,121.593145 C72.1042618,109.34669 72.1092003,97.1035096 72.1651697,84.858692 C72.1717544,83.4634018 72.3676475,82.071387 72.5026328,80.3158106 C70.2737306,81.6390436 69.3996191,83.0408844 69.4029114,85.3139628 C69.4243115,100.259289 69.2992033,115.206253 69.2201875,130.15158 C69.1724489,139.214415 69.050633,148.280526 69.123064,157.341724 C69.142818,159.786757 68.5073998,161.935373 67.1081629,163.77447 C58.5135558,175.080906 47.3492913,181.682331 32.8153351,181.859199 C31.1757586,181.878851 29.5295975,181.482536 27.6875433,181.254901 C43.943384,179.731873 54.5561846,171.070265 61.3268451,157.08461 C61.5276768,156.668644 61.7021699,156.18717 61.703816,155.733537 C61.74497,148.645725 61.713693,141.556275 61.8025857,134.468463 C61.8206935,133.037145 61.3400144,132.44431 59.9621776,132.131516 C52.9643468,130.547894 45.9846238,130.400505 38.9785622,132.069285 C38.2756514,132.237964 37.4706786,131.980851 36.7134445,131.923533 C36.9570764,131.217699 37.0426767,130.390679 37.4739709,129.824047 C41.7276512,124.236335 47.1303519,120.319042 54.2203677,119.25456 C56.6007166,118.897549 59.0798352,119.198879 61.6873544,119.198879 L61.6873544,103.004015 C59.4172983,102.792756 57.0698726,102.330935 54.7422008,102.416093 C50.8901838,102.556932 47.0463977,103.015479 43.2091962,103.419982 C42.3515463,103.511691 41.5432812,103.983338 40.6905697,104.194597 C39.8460891,104.404218 38.9752699,104.502478 38.1159738,104.651505 C38.2986977,103.732776 38.2114511,102.622439 38.7085918,101.926432 C44.1804312,94.255611 51.2951395,89.1526484 60.9712743,88.1946146 C61.2313678,88.1700497 61.4898151,88.1110938 61.8437397,88.0537755 L61.8437397,77.980501 C60.5070569,79.5248187 59.3547441,80.8562399 58.2007852,82.1876612 C57.932461,81.9469245 57.6657829,81.7061878 57.3974586,81.4654511 C61.9260478,75.8941164 66.4546369,70.3227817 71.2005193,64.4845077 C70.5420549,67.6976055 69.7815285,70.3309701 69.5132042,73.0151022 C69.2415876,75.7483643 69.4539424,78.5307563 69.4539424,81.2869457 C77.4822701,71.7246226 85.431582,62.252371 93.5652639,52.5639477 C79.9498655,56.1684473 67.8769201,53.104377 56.8855025,44.2855535 C53.8894893,47.9146181 50.9066454,51.5289437 47.9221554,55.1416316 C48.0884177,55.3316007 48.2513876,55.5232075 48.4176499,55.7131766 C50.8342143,53.8282247 53.2507788,51.9416352 55.6969742,50.0321183 C53.6359805,53.7365155 50.5428438,56.2306785 46.7517348,58.0812395 C45.3524979,58.7657832 44.0470922,59.8548301 43.0116569,61.0323109 C37.106877,67.7418225 31.2975745,74.5332172 25.4454719,81.290221 C25.2034862,81.568624 24.8709617,81.7667814 24.3606517,81.788071 C29.8423681,74.6937083 35.3224384,67.597708 40.8025087,60.5033453 C40.6247233,60.3526801 40.4436456,60.202015 40.264214,60.0513499 C36.1883191,64.7186938 32.1157166,69.3876753 28.0398217,74.0550192 C27.9344674,73.9698606 27.827467,73.8847021 27.7204665,73.7995435 C31.0276041,69.5481664 34.3363879,65.3000647 37.6797411,61.0044706 C34.8088361,60.5541129 32.1190089,60.2904489 29.5049051,59.6910637 C24.8676693,58.6282194 20.796713,56.648283 18.4657489,52.1479809 C18.1990708,51.6321166 17.49616,51.2489031 16.9101266,50.9967027 C8.35502745,47.3119576 2.71034108,40.9872972 0.599962559,32.0128956 C-2.63639014,18.249963 7.38873089,-0.850118301 26.6060154,0.029307546 C30.9420037,0.227464953 34.5915429,2.11732981 37.0854769,5.79552432 C37.6040177,6.55867599 38.2229742,7.58221631 38.0912814,8.36665762 C37.913496,9.41640057 37.208939,10.5365631 36.390797,11.2309329 C36.1076572,11.4716695 34.6112968,10.7134309 34.0170327,10.0862054 C32.6391958,8.62868394 31.6613761,6.76502172 30.1847696,5.43851346 C25.8092735,1.50975627 20.9975446,1.61784213 15.8648143,4.09726621 C7.27679194,8.24383278 3.61572967,15.6182361 2.17698488,24.4157699 C1.31933495,29.6693977 3.33752845,36.3379676 6.28909528,39.6034707 C6.28909528,36.570516 5.90224743,33.3394039 6.35988021,30.2311166 C7.84800983,20.0956109 17.0862659,12.4051383 27.4044036,12.2282706 C33.9314323,12.118547 39.4592412,13.9068767 43.1235958,19.6861948 C47.8382012,27.119554 45.568145,37.5940563 38.2377897,42.0337648 C37.3538012,42.5692811 36.3233043,42.8640607 35.2664689,43.1031598 C40.4518764,40.7334592 43.4643512,36.7375578 43.9960612,31.1825997 C44.5146019,25.7848575 42.8355176,21.061833 38.5587911,17.4180294 C33.9874018,13.5236632 24.8199307,13.2321589 19.7612776,16.5811828 C14.8557176,19.8270339 12.9033705,24.5385948 12.090167,30.0182202 C11.3889023,34.7379694 11.5337645,39.333256 13.9420982,43.6026474 C14.6614706,44.8767504 15.6327056,46.0100143 16.8245263,47.6787944 C17.005604,46.0214779 17.0270041,44.9160544 17.2591128,43.8597608 C19.0616592,35.6910901 29.2234116,30.2605946 37.1249848,33.2231297 C38.4880062,33.7324434 39.9860128,34.3121766 39.7884734,36.077579 C39.5827033,37.9330529 38.1209123,38.8730723 36.4039662,39.0859687 C35.0080216,39.2579235 33.5544614,39.1105337 32.140409,38.9647815 C26.550046,38.3883236 22.3292889,41.6702033 21.5934549,47.226799 C21.2757458,49.6276152 21.8716561,50.4055058 24.2849283,50.6462425 C31.6070528,51.3815539 38.4221597,49.6931218 44.9804655,46.5176903 C50.0720418,44.0513675 54.2154292,40.6777786 57.8369836,36.2478961 C67.1345014,24.8726783 76.8303903,13.8184428 86.3731861,2.64138246 C86.5740177,2.40555876 86.8374035,2.22214034 87.0711584,2.01415694 C87.2077898,2.13206879 87.3460673,2.24998064 87.4826987,2.36625482 C79.8165265,12.0202872 72.1487081,21.6759572 64.4808898,31.3316272 C64.5566132,31.3971338 64.6323366,31.4626403 64.7064138,31.5297846 C72.5964639,22.3228347 80.486514,13.1142471 88.374918,3.90893479 C88.5131955,4.00064401 88.651473,4.09235322 88.7881044,4.18242477 C88.6843963,4.46082774 88.6415961,4.78672298 88.467103,5.00944535 C84.9262105,9.53922541 81.5548726,14.2213083 77.7423635,18.5169023 C75.4723074,21.0749343 75.5743694,23.4937648 76.7628977,26.1893606 C79.7012952,32.8644812 85.3114122,35.8466683 92.2154118,36.4116625 C99.1111806,36.9766568 105.531209,35.0884296 111.974283,32.4910937 C116.305333,30.7453433 118.927668,27.2047126 122.675977,25.0249811 C131.04506,20.1578422 139.725267,19.9662354 148.415351,24.0472954 C152.813894,26.114028 152.670678,26.2663308 155.870815,22.540644 C158.489857,19.494588 161.250469,16.5697192 163.948527,13.5908074 C164.109851,13.7234583 164.274467,13.8561091 164.435791,13.9887599 C161.607686,17.7455623 158.875059,21.5760596 155.928431,25.2395152 C149.557787,33.1543478 142.999481,40.9185153 136.681515,48.8726519 C134.05095,52.1840095 131.836863,55.8212624 129.433468,59.3078502 C129.652407,59.4683413 129.869701,59.6304701 130.08864,59.7909612 C135.409033,53.3975189 140.69321,46.972961 146.059695,40.6188227 C151.46898,34.2139167 156.958927,27.8794304 162.415951,21.5138284 C162.569044,21.6251896 162.720491,21.7332754 162.873584,21.8446366 C162.164089,22.8927419 161.522086,23.9981655 160.730282,24.9840395 C150.965255,37.1191336 141.18212,49.2394887 131.3924,61.3549308 C130.159425,62.8828718 128.852373,64.3518569 127.612814,65.8748849 C125.846483,68.0480657 125.930437,70.6519523 126.030853,73.2214479 C126.396301,82.4808031 134.824645,90.0222482 142.694942,90.3268539 C149.054062,90.5708659 155.253505,84.6376073 153.688005,78.5602343 C153.208972,76.701485 152.328276,75.1604427 150.338068,74.5561445 C148.351151,73.9518463 146.174926,75.1014868 145.64157,77.024105 C145.073644,79.0629973 146.489343,81.5113057 148.496013,81.9059829 C149.070523,82.0206194 149.66808,82.0091558 150.310083,82.0582857 C148.206289,84.9045466 143.376452,84.8963583 141.02738,82.1270676 C137.605012,78.0951376 138.520277,71.4085533 142.895773,67.5747807 C146.308265,64.5844053 150.155344,63.8949485 154.275685,65.4654688 C158.519488,67.0834813 160.397758,70.638851 160.992022,74.9147931 C162.310597,84.4525512 153.556312,93.9460924 142.411802,92.5475269 C142.079277,92.508223 141.751691,92.4509047 141.256197,92.3772098 C142.471064,94.2081188 143.669469,95.8621599 144.704904,97.6111856 C147.78981,102.820596 148.232627,108.331338 146.303327,114.018946 C144.576504,119.105532 139.066803,123.085057 133.652579,122.949131 C131.479646,122.895088 130.279595,123.733572 128.974189,125.341759 C122.396129,133.430184 115.671561,141.39906 108.989793,149.402326 C104.531989,154.741112 100.057723,160.06516 95.5785189,165.412134 C97.0057406,166.252256 97.7135898,165.26802 98.5004548,164.331276 C107.162554,154.018902 115.834531,143.709804 124.522969,133.415445 C125.62919,132.106951 126.852287,130.893442 128.021062,129.635715 C128.207078,129.796206 128.393094,129.953422 128.57911,130.113913 C118.878283,141.928025 109.175809,153.740499 99.3548124,165.697088 C100.080769,165.697088 100.798496,165.683987 101.516222,165.700363 C111.831067,165.954201 122.149205,166.185112 132.46405,166.479892 C136.32759,166.589615 140.189484,166.841816 144.051378,167.043248 C145.416046,167.113668 146.388927,166.699339 147.363454,165.584089 C153.365358,158.72555 160.396112,153.317982 169.522429,151.262713 C184.291786,147.938254 199.727839,156.775092 204.397998,171.124308 C210.824611,190.872905 197.196043,210.351287 176.375397,211.120989 C169.716676,211.366639 163.699957,208.933069 157.833039,206.244024 C151.791628,203.476371 145.980679,200.214143 139.914576,197.503808 C134.070704,194.893371 128.880358,195.866144 125.095833,199.953754 C122.784623,202.451193 122.223282,205.534915 123.548442,208.643202 C124.881832,211.776055 127.382351,213.710136 130.916659,213.921395 C134.088811,214.108089 136.745715,213.002665 138.149891,210.046681 C138.722755,208.84136 138.930171,207.301955 138.790247,205.965621 C138.640447,204.513013 137.460149,203.826831 135.886419,203.625398 C134.956338,203.504211 133.975226,202.870435 133.293716,202.192442 C133.031976,201.930416 133.37767,200.441779 133.734887,200.315678 C134.739045,199.960305 136.01482,199.665526 136.966301,199.98487 C139.590282,200.867571 141.402705,204.578519 141.037257,207.722835 C140.535178,212.011878 137.114455,215.498466 132.980945,215.932447 C127.760968,216.481065 123.102332,213.64463 121.609264,209.005126 C119.154838,201.381798 124.501569,194.143321 132.546358,194.058162 C138.375415,193.997569 143.313898,196.532673 148.270489,199.085792 C149.765203,199.857132 151.251687,200.644849 153.088803,201.607796 C152.529108,200.001247 151.939782,198.795926 151.692858,197.525098 C150.22119,189.90832 155.013165,181.035454 162.223351,178.125324 C166.676216,176.328806 170.855819,177.334332 174.464204,180.195332 C177.866819,182.892566 178.34256,186.77383 178.001805,190.851615 C177.741711,193.959902 176.205843,196.418037 173.948956,198.681289 C174.090526,198.032774 174.218926,197.380984 174.378604,196.735744 C174.962991,194.357855 173.774463,191.550898 171.886316,190.872905 C169.677168,190.080275 167.619467,191.143119 166.254799,193.652021 C164.346898,197.154986 165.46958,200.98057 169.691983,204.254262 C175.037069,208.39919 181.251327,209.512802 187.674647,206.476572 C201.123783,200.117521 207.346272,184.85285 202.226711,170.94089 C201.997895,170.32349 201.663724,169.745395 201.062875,169.186951 L192.762931,186.176083 Z" id="Fill-1" fill="#FFFFFF"></path>
                <path d="M47.591277,52.3821669 C47.4842765,52.2822694 47.3739837,52.1840095 47.2669833,52.0824743 C45.8035461,53.7807324 44.3401089,55.4806282 42.879964,57.1788863 C43.0182415,57.2918852 43.1581652,57.4065217 43.2964427,57.5227959 C44.7286029,55.8081611 46.160763,54.095164 47.591277,52.3821669 Z M23.1836465,52.5901503 C23.0700614,52.865278 22.9564763,53.1387679 22.8445374,53.4122579 C24.2799898,54.5668114 25.5524723,56.0947524 27.1854641,56.7989481 C30.8893266,58.4022217 34.8631595,58.9442887 38.9176542,58.434975 C39.2896866,58.3874827 39.7506117,58.2220786 39.9711973,57.951864 C42.7943636,54.4898412 45.5796682,50.9983404 48.3764958,47.515028 C40.3646298,51.4765384 32.140409,53.6841102 23.1836465,52.5901503 Z M145.806186,81.8994322 C145.544446,81.5522474 145.3716,81.344264 145.223445,81.1215416 C142.96985,77.780706 143.409376,74.729737 146.365881,73.1330141 C149.587418,71.390539 153.260003,72.684294 154.812333,76.1119258 C156.590187,80.0423207 155.879046,83.7123269 153.597466,87.2480446 C155.961354,85.7839725 157.433022,83.6844866 158.265979,81.1444689 C159.665216,76.8898165 159.375492,72.7514382 156.38771,69.2959661 C153.767021,66.2679244 149.088631,65.8928992 145.756801,67.9940228 C141.837292,70.4668962 139.817452,75.1997467 141.094873,78.9303465 C141.870215,81.2050625 143.636546,82.3989199 145.806186,81.8994322 Z M151.366918,27.9236473 C141.671029,21.5023647 124.916402,22.1394162 121.459464,29.1240554 C125.586389,28.7490302 129.425237,29.5563988 132.817975,31.698464 C136.107005,33.773385 139.191911,36.1676505 142.508925,38.5209744 C145.411107,35.0491256 148.382428,31.4953936 151.366918,27.9236473 Z M172.57935,208.867562 C170.622064,207.341259 168.498517,206.016389 166.784863,204.287015 C162.847246,200.315678 162.376444,195.910361 165.120594,191.568912 C167.680375,187.522243 173.01229,187.535344 175.532563,191.595115 C175.725164,191.907909 175.937519,192.210877 176.495567,193.057549 C176.495567,191.008831 176.701337,189.533295 176.452767,188.136367 C175.922703,185.14763 174.905376,182.357049 171.925824,180.827471 C167.380773,178.493799 163.148493,178.975272 159.275076,182.29318 C153.739036,187.034219 150.147113,197.32039 157.935101,203.517312 C160.675959,205.697044 164.478591,206.607585 167.869683,207.90134 C169.38909,208.479436 171.094513,208.577696 172.57935,208.867562 Z M76.9933602,75.9710867 C76.7793593,75.8695515 76.5686506,75.7647409 76.3546497,75.6632057 C75.6945391,76.7424267 74.6656884,77.756141 74.4582721,78.9172451 C74.0944705,80.9561375 74.1751324,83.0851013 74.1669016,85.1763989 C74.1076398,97.4867231 74.0944705,109.797047 74.0335626,122.104096 C73.9611315,137.113292 73.8557772,152.120849 73.7635922,167.128407 C73.7635922,167.264333 73.7487767,167.400259 73.7635922,167.534548 C73.9166851,168.807013 73.2746823,169.476818 72.1552928,170.013972 C64.3162737,173.778962 57.2328425,178.628087 51.3132472,185.00679 C48.9147905,187.592663 46.8126428,190.452025 44.577156,193.186925 C44.7351875,193.3163 44.893219,193.447313 45.0512504,193.576689 C46.804412,191.655708 48.5164195,189.693786 50.3189659,187.817023 C57.3381968,180.506488 65.5591253,175.085819 75.3340298,172.087255 C75.8509244,171.928402 76.4863426,171.209467 76.5472506,170.690327 C76.7777131,168.754608 76.8715443,166.791048 76.8764828,164.838952 C76.9275138,136.024245 76.9587908,107.209537 76.9933602,78.3948302 L76.9933602,75.9710867 Z M100.521941,157.213986 C102.816689,154.950733 104.103987,153.090347 104.062833,150.172028 C103.93114,141.050237 104.161603,131.923533 104.210988,122.798466 C104.281773,109.058461 104.309757,95.3217306 104.378896,81.583363 C104.411819,75.2292246 104.510589,68.8750863 104.556681,62.520948 C104.581374,59.0343602 104.559974,55.5494101 104.559974,52.0628223 C104.327865,51.9793014 104.09411,51.8941429 103.862002,51.810622 C102.92369,53.3647656 101.545853,54.8173741 101.159005,56.4976179 C100.651987,58.6920883 100.895619,61.0634265 100.875865,63.3594322 C100.793557,73.5014886 100.704665,83.6419073 100.670095,93.782326 C100.602603,114.004207 100.571325,134.224451 100.523587,154.444695 C100.520294,155.180007 100.521941,155.915318 100.521941,157.213986 Z M144.770751,169.221342 C144.502426,169.093604 144.390488,168.995344 144.270318,168.988794 C135.530849,168.554813 126.791379,167.945601 118.045325,167.752357 C110.112475,167.575489 102.169748,167.878457 94.2336053,167.870269 C93.6508643,167.868631 92.831076,167.16116 92.5512287,166.578152 C92.2252888,165.898521 92.3174738,164.996168 92.3207661,164.188799 C92.391551,146.539689 92.4738591,128.892216 92.554521,111.241467 C92.6351829,93.3892865 92.7191371,75.5387432 92.7932143,57.6865623 C92.7948605,57.3393774 92.6796292,56.9938302 92.6203674,56.6466453 C92.4030742,56.5893271 92.1857809,56.5303712 91.9684876,56.4730529 C91.3989159,57.8143001 90.3568959,59.152272 90.3404343,60.5000699 C90.2416647,68.8112174 90.4260347,77.1256402 90.4178039,85.4400629 C90.4029884,100.992963 90.3058649,116.545863 90.2729417,132.098763 C90.2482493,144.409087 90.2663571,156.719411 90.2745879,169.029735 C90.2745879,169.738844 90.3601883,170.451228 90.4424963,171.686027 C96.3242299,171.686027 102.018301,171.556652 107.707434,171.71223 C118.219819,172.000459 128.727265,172.459005 139.238003,172.842218 C143.032405,172.979782 143.032405,172.973232 144.770751,169.221342 Z M107.368325,45.1338638 C104.301527,46.9713233 101.348314,48.988926 98.1745149,50.565997 C95.6558885,51.815535 94.7439152,53.7741818 94.7274536,56.2503305 C94.6434994,68.5491911 94.659961,80.8480516 94.6122223,93.1469122 C94.5875299,100.242913 94.5019296,107.338913 94.4591294,114.433276 C94.3620059,130.64943 94.271467,146.867221 94.1891589,163.085013 C94.1842205,163.726978 94.2550054,164.372217 94.3241442,165.636494 C96.4773229,162.831175 98.8790719,160.929847 98.6387324,157.444897 C98.4527162,154.765677 98.553132,152.061893 98.5613628,149.37121 C98.5860552,139.704077 98.6156861,130.036943 98.6601325,120.371447 C98.7490252,101.315583 98.8461487,82.2580808 98.9498568,63.2022164 C98.9613799,60.9749927 98.9185798,58.7313923 99.1589193,56.5221828 C99.2807352,55.3971073 99.7531834,54.1557576 100.454448,53.2697811 C102.66195,50.4808384 105.05053,47.8360102 107.368325,45.1338638 Z M47.161629,177.006799 C47.7081544,176.800454 48.2711415,176.623586 48.8012054,176.379574 C55.6772203,173.20578 61.1753983,168.415611 65.6661258,162.374267 C66.7460074,160.923296 67.1015782,159.478876 67.0966397,157.718387 C67.0752396,148.386974 67.1723632,139.055562 67.2069325,129.724149 C67.2777175,111.125193 67.3369793,92.527875 67.3913239,73.928919 C67.3929487,73.3016935 67.2991176,72.6761057 67.2233941,71.7082459 C65.3122011,73.5702705 63.9639952,75.212848 64.0051492,77.6840838 C64.0495956,80.3796796 63.9228412,83.076913 63.8866256,85.7757841 C63.8685178,87.2955368 63.8833333,88.8185648 63.8833333,90.3252162 C54.2779833,90.726444 44.2100621,95.8768989 42.0749912,101.374539 C49.2934076,100.393578 56.501947,99.9939875 63.7763328,101.435132 L63.7763328,120.69898 C59.4288214,121.170627 55.1471564,121.231221 51.0762,122.189255 C46.814289,123.193143 43.4314279,126.001738 40.2707986,129.51289 C48.3896651,128.731725 56.0739451,128.51064 63.7022556,131.032643 C63.7022556,131.877678 63.7104864,132.683409 63.7006094,133.48914 C63.6380553,139.098141 63.3763157,144.71533 63.5689165,150.316143 C63.7220095,154.77059 62.8528365,158.87294 60.6272267,162.672322 C57.2443656,168.441814 52.9445929,173.387561 47.161629,177.006799 Z M113.393274,34.037049 C108.349437,36.4788068 103.170614,38.1164713 97.5703738,38.367034 C93.19817,38.5635537 88.8802894,38.5881187 84.8011023,36.7195435 C79.1630005,34.1320335 75.2533679,30.0493359 73.8310848,23.6346039 C68.5370307,30.0804515 63.4224082,36.3052143 58.3143703,42.5217888 C75.8558629,57.9354873 101.200159,54.1934239 113.393274,34.037049 Z M106.494213,82.9475375 C107.213585,82.1483572 107.587264,81.7749697 107.913204,81.3639159 C113.314258,74.5217536 118.652759,67.6288236 124.11966,60.8390665 C129.298483,54.4112333 134.597475,48.0800222 139.880006,41.7357099 C140.526947,40.9578192 140.928611,40.382999 140.000176,39.5510654 C135.476525,35.4978457 130.827766,31.6034795 124.43243,31.0483112 C121.684988,30.8092122 118.730128,30.7568069 116.935813,33.485156 C115.574438,35.5535263 113.483813,37.0569023 113.029473,39.885149 C112.761148,41.5506538 111.06231,43.0589428 109.827689,44.4820733 C107.363386,47.3201459 106.655537,50.6626192 106.625906,54.2605681 C106.597921,57.7045766 106.512321,61.1469474 106.499152,64.5876806 C106.477751,70.5160262 106.494213,76.442734 106.494213,82.9475375 Z M126.085176,62.4881947 C125.94196,62.4063114 125.80039,62.3244282 125.657174,62.242545 C125.229172,62.71583 124.791294,63.1792891 124.378107,63.6624001 C118.685682,70.2802025 112.973503,76.8832658 107.338694,83.5485604 C106.793814,84.1938002 106.476105,85.2288042 106.462936,86.0885781 C106.267043,99.6713676 106.11395,113.254157 106.003657,126.838584 C105.946041,134.006642 105.992134,141.177975 106.000365,148.34767 C106.000365,148.91594 106.085965,149.485847 106.171566,150.543778 C114.298663,141.099367 122.117928,132.011967 129.575038,123.348721 C127.339551,121.683216 124.582231,120.471345 123.115502,118.366946 C119.758979,113.544024 119.48407,108.187223 122.351683,102.864813 C124.511446,98.859086 129.179959,96.8791496 133.619656,98.0697317 C137.007455,98.9802732 139.349942,101.140353 140.056145,104.468087 C140.750825,107.736865 139.555712,110.827138 137.277425,113.23123 C134.686368,115.969405 129.979993,115.5518 127.938754,112.649859 C131.469769,114.354668 134.556321,114.022222 136.335821,111.742593 C138.623985,108.812811 138.790247,104.631853 136.719377,102.163893 C133.168607,97.9354432 125.560051,99.5223401 123.505642,105.016705 C122.201882,108.503292 122.292421,112.08814 123.910597,115.473193 C124.527908,116.768585 125.421773,118.119658 126.557624,118.951592 C132.849252,123.573081 143.142697,120.351795 145.080229,110.971253 C146.42185,104.476275 144.123809,99.0228525 139.880006,94.4259281 C137.577027,91.9301274 134.406521,90.2449706 131.733155,88.0636015 C127.369182,84.5000435 124.470292,80.0619726 124.022536,74.3039442 C123.915536,72.9397696 123.884259,71.5674068 123.801951,69.8740617 C122.6875,71.0515425 121.78705,72.0013879 120.888246,72.9545086 C121.749188,71.0941217 122.964055,69.5399781 123.872736,67.8237057 C124.77154,66.1303606 125.359219,64.273249 126.085176,62.4881947 Z M165.621027,154.528216 C165.56835,154.42013 165.515673,154.312044 165.462996,154.205596 C161.815103,156.503239 157.958147,158.535581 154.575286,161.168946 C150.652484,164.221552 147.526424,168.127382 145.322215,172.622771 C144.416826,174.470057 143.243113,175.092369 141.193643,174.976095 C132.590805,174.494622 123.979736,174.096669 115.367021,173.803527 C107.356801,173.530037 99.3416432,173.420314 91.3264848,173.256547 C88.4440567,173.195954 88.3107177,173.094419 88.3156562,170.294012 C88.3502256,147.902225 88.3518717,125.512076 88.4391183,103.120289 C88.4901493,90.6838647 88.6860424,78.244165 88.8111507,65.8044653 C88.8259661,64.3813349 88.8127968,62.9582044 88.8127968,60.9749927 C85.370674,65.1199216 82.3285683,68.7440731 79.3556014,72.425543 C79.0280153,72.8316838 79.0115537,73.5637198 79.0082614,74.1434531 C78.9193687,90.1712757 78.8452914,106.197461 78.7827373,122.225283 C78.718537,138.325163 78.6181212,154.421768 78.677383,170.518372 C78.6856138,172.586743 77.778579,173.53495 76.1488796,174.024612 C65.8472035,177.123073 57.3579507,182.953159 50.258058,190.886006 C47.9369708,193.478429 45.7179457,196.160923 43.452828,198.802476 C45.2784207,198.158874 46.8356891,197.284361 48.4028344,196.4295 C57.3480738,191.536159 66.966593,188.693173 77.093776,187.977514 C87.1057278,187.270043 97.1555412,186.87209 107.192185,186.800033 C119.349085,186.714875 131.510923,187.066972 143.66453,187.348651 C145.801248,187.397781 146.546959,186.721425 146.946976,184.641591 C148.560214,176.264937 152.130737,168.685826 157.528499,162.097501 C159.84794,159.267617 162.901569,157.032205 165.621027,154.528216 Z M192.762931,186.176083 C187.170922,188.352539 180.416723,185.0985 177.797681,179.253675 C175.84698,174.900763 176.100489,170.74437 178.773854,166.741918 C181.042264,163.347039 185.947824,161.421146 189.682964,162.824624 C190.962031,163.306098 192.01722,164.51797 192.991747,165.564437 C193.28641,165.882144 193.17941,166.946626 192.855116,167.341303 C192.563746,167.696676 191.720911,167.673749 191.118416,167.677024 C190.741445,167.6803 190.320028,167.48378 189.985857,167.270884 C187.114952,165.448163 184.257217,165.867405 181.550928,167.51162 C178.823239,169.168937 178.387006,171.874359 178.627346,174.79759 C179.024071,179.615599 183.116427,184.079872 187.724032,184.682533 C193.284764,185.408018 198.221601,181.286017 199.075959,174.926965 C200.073533,167.526359 196.689025,161.835475 191.041047,157.592286 C185.337098,153.311431 178.686608,151.82607 171.818824,154.300581 C163.953466,157.137016 158.391088,162.75093 154.517671,170.104043 C151.722489,175.410076 149.485356,180.89789 148.575029,186.840975 C148.308351,188.575261 147.187315,189.17956 145.76174,189.171371 C138.765555,189.133705 131.76937,188.987953 124.77154,188.883142 C121.508848,188.832375 118.246157,188.750492 114.983466,188.752129 C107.504956,188.753767 100.019862,188.63258 92.5462902,188.868403 C80.9918855,189.230327 69.4555886,190.044246 58.4970942,194.141683 C54.6352003,195.584466 50.799645,197.284361 47.2883834,199.418238 C44.6199562,201.039526 42.3680079,203.415777 40.1489827,205.669204 C38.1670048,207.675343 36.4879205,209.974624 34.2260951,212.006965 C35.0574065,209.31137 35.6747169,206.528978 36.7545986,203.936555 C43.3425352,188.098701 54.5627692,176.533514 69.9066367,168.87907 C71.3025813,168.183063 71.8392298,167.423186 71.840876,165.816638 C71.850753,151.074382 71.9824459,136.333763 72.0482923,121.593145 C72.1042618,109.34669 72.1092003,97.1035096 72.1651697,84.858692 C72.1717544,83.4634018 72.3676475,82.071387 72.5026328,80.3158106 C70.2737306,81.6390436 69.3996191,83.0408844 69.4029114,85.3139628 C69.4243115,100.259289 69.2992033,115.206253 69.2201875,130.15158 C69.1724489,139.214415 69.050633,148.280526 69.123064,157.341724 C69.142818,159.786757 68.5073998,161.935373 67.1081629,163.77447 C58.5135558,175.080906 47.3492913,181.682331 32.8153351,181.859199 C31.1757586,181.878851 29.5295975,181.482536 27.6875433,181.254901 C43.943384,179.731873 54.5561846,171.070265 61.3268451,157.08461 C61.5276768,156.668644 61.7021699,156.18717 61.703816,155.733537 C61.74497,148.645725 61.713693,141.556275 61.8025857,134.468463 C61.8206935,133.037145 61.3400144,132.44431 59.9621776,132.131516 C52.9643468,130.547894 45.9846238,130.400505 38.9785622,132.069285 C38.2756514,132.237964 37.4706786,131.980851 36.7134445,131.923533 C36.9570764,131.217699 37.0426767,130.390679 37.4739709,129.824047 C41.7276512,124.236335 47.1303519,120.319042 54.2203677,119.25456 C56.6007166,118.897549 59.0798352,119.198879 61.6873544,119.198879 L61.6873544,103.004015 C59.4172983,102.792756 57.0698726,102.330935 54.7422008,102.416093 C50.8901838,102.556932 47.0463977,103.015479 43.2091962,103.419982 C42.3515463,103.511691 41.5432812,103.983338 40.6905697,104.194597 C39.8460891,104.404218 38.9752699,104.502478 38.1159738,104.651505 C38.2986977,103.732776 38.2114511,102.622439 38.7085918,101.926432 C44.1804312,94.255611 51.2951395,89.1526484 60.9712743,88.1946146 C61.2313678,88.1700497 61.4898151,88.1110938 61.8437397,88.0537755 L61.8437397,77.980501 C60.5070569,79.5248187 59.3547441,80.8562399 58.2007852,82.1876612 C57.932461,81.9469245 57.6657829,81.7061878 57.3974586,81.4654511 C61.9260478,75.8941164 66.4546369,70.3227817 71.2005193,64.4845077 C70.5420549,67.6976055 69.7815285,70.3309701 69.5132042,73.0151022 C69.2415876,75.7483643 69.4539424,78.5307563 69.4539424,81.2869457 C77.4822701,71.7246226 85.431582,62.252371 93.5652639,52.5639477 C79.9498655,56.1684473 67.8769201,53.104377 56.8855025,44.2855535 C53.8894893,47.9146181 50.9066454,51.5289437 47.9221554,55.1416316 C48.0884177,55.3316007 48.2513876,55.5232075 48.4176499,55.7131766 C50.8342143,53.8282247 53.2507788,51.9416352 55.6969742,50.0321183 C53.6359805,53.7365155 50.5428438,56.2306785 46.7517348,58.0812395 C45.3524979,58.7657832 44.0470922,59.8548301 43.0116569,61.0323109 C37.106877,67.7418225 31.2975745,74.5332172 25.4454719,81.290221 C25.2034862,81.568624 24.8709617,81.7667814 24.3606517,81.788071 C29.8423681,74.6937083 35.3224384,67.597708 40.8025087,60.5033453 C40.6247233,60.3526801 40.4436456,60.202015 40.264214,60.0513499 C36.1883191,64.7186938 32.1157166,69.3876753 28.0398217,74.0550192 C27.9344674,73.9698606 27.827467,73.8847021 27.7204665,73.7995435 C31.0276041,69.5481664 34.3363879,65.3000647 37.6797411,61.0044706 C34.8088361,60.5541129 32.1190089,60.2904489 29.5049051,59.6910637 C24.8676693,58.6282194 20.796713,56.648283 18.4657489,52.1479809 C18.1990708,51.6321166 17.49616,51.2489031 16.9101266,50.9967027 C8.35502745,47.3119576 2.71034108,40.9872972 0.599962559,32.0128956 C-2.63639014,18.249963 7.38873089,-0.850118301 26.6060154,0.029307546 C30.9420037,0.227464953 34.5915429,2.11732981 37.0854769,5.79552432 C37.6040177,6.55867599 38.2229742,7.58221631 38.0912814,8.36665762 C37.913496,9.41640057 37.208939,10.5365631 36.390797,11.2309329 C36.1076572,11.4716695 34.6112968,10.7134309 34.0170327,10.0862054 C32.6391958,8.62868394 31.6613761,6.76502172 30.1847696,5.43851346 C25.8092735,1.50975627 20.9975446,1.61784213 15.8648143,4.09726621 C7.27679194,8.24383278 3.61572967,15.6182361 2.17698488,24.4157699 C1.31933495,29.6693977 3.33752845,36.3379676 6.28909528,39.6034707 C6.28909528,36.570516 5.90224743,33.3394039 6.35988021,30.2311166 C7.84800983,20.0956109 17.0862659,12.4051383 27.4044036,12.2282706 C33.9314323,12.118547 39.4592412,13.9068767 43.1235958,19.6861948 C47.8382012,27.119554 45.568145,37.5940563 38.2377897,42.0337648 C37.3538012,42.5692811 36.3233043,42.8640607 35.2664689,43.1031598 C40.4518764,40.7334592 43.4643512,36.7375578 43.9960612,31.1825997 C44.5146019,25.7848575 42.8355176,21.061833 38.5587911,17.4180294 C33.9874018,13.5236632 24.8199307,13.2321589 19.7612776,16.5811828 C14.8557176,19.8270339 12.9033705,24.5385948 12.090167,30.0182202 C11.3889023,34.7379694 11.5337645,39.333256 13.9420982,43.6026474 C14.6614706,44.8767504 15.6327056,46.0100143 16.8245263,47.6787944 C17.005604,46.0214779 17.0270041,44.9160544 17.2591128,43.8597608 C19.0616592,35.6910901 29.2234116,30.2605946 37.1249848,33.2231297 C38.4880062,33.7324434 39.9860128,34.3121766 39.7884734,36.077579 C39.5827033,37.9330529 38.1209123,38.8730723 36.4039662,39.0859687 C35.0080216,39.2579235 33.5544614,39.1105337 32.140409,38.9647815 C26.550046,38.3883236 22.3292889,41.6702033 21.5934549,47.226799 C21.2757458,49.6276152 21.8716561,50.4055058 24.2849283,50.6462425 C31.6070528,51.3815539 38.4221597,49.6931218 44.9804655,46.5176903 C50.0720418,44.0513675 54.2154292,40.6777786 57.8369836,36.2478961 C67.1345014,24.8726783 76.8303903,13.8184428 86.3731861,2.64138246 C86.5740177,2.40555876 86.8374035,2.22214034 87.0711584,2.01415694 C87.2077898,2.13206879 87.3460673,2.24998064 87.4826987,2.36625482 C79.8165265,12.0202872 72.1487081,21.6759572 64.4808898,31.3316272 C64.5566132,31.3971338 64.6323366,31.4626403 64.7064138,31.5297846 C72.5964639,22.3228347 80.486514,13.1142471 88.374918,3.90893479 C88.5131955,4.00064401 88.651473,4.09235322 88.7881044,4.18242477 C88.6843963,4.46082774 88.6415961,4.78672298 88.467103,5.00944535 C84.9262105,9.53922541 81.5548726,14.2213083 77.7423635,18.5169023 C75.4723074,21.0749343 75.5743694,23.4937648 76.7628977,26.1893606 C79.7012952,32.8644812 85.3114122,35.8466683 92.2154118,36.4116625 C99.1111806,36.9766568 105.531209,35.0884296 111.974283,32.4910937 C116.305333,30.7453433 118.927668,27.2047126 122.675977,25.0249811 C131.04506,20.1578422 139.725267,19.9662354 148.415351,24.0472954 C152.813894,26.114028 152.670678,26.2663308 155.870815,22.540644 C158.489857,19.494588 161.250469,16.5697192 163.948527,13.5908074 C164.109851,13.7234583 164.274467,13.8561091 164.435791,13.9887599 C161.607686,17.7455623 158.875059,21.5760596 155.928431,25.2395152 C149.557787,33.1543478 142.999481,40.9185153 136.681515,48.8726519 C134.05095,52.1840095 131.836863,55.8212624 129.433468,59.3078502 C129.652407,59.4683413 129.869701,59.6304701 130.08864,59.7909612 C135.409033,53.3975189 140.69321,46.972961 146.059695,40.6188227 C151.46898,34.2139167 156.958927,27.8794304 162.415951,21.5138284 C162.569044,21.6251896 162.720491,21.7332754 162.873584,21.8446366 C162.164089,22.8927419 161.522086,23.9981655 160.730282,24.9840395 C150.965255,37.1191336 141.18212,49.2394887 131.3924,61.3549308 C130.159425,62.8828718 128.852373,64.3518569 127.612814,65.8748849 C125.846483,68.0480657 125.930437,70.6519523 126.030853,73.2214479 C126.396301,82.4808031 134.824645,90.0222482 142.694942,90.3268539 C149.054062,90.5708659 155.253505,84.6376073 153.688005,78.5602343 C153.208972,76.701485 152.328276,75.1604427 150.338068,74.5561445 C148.351151,73.9518463 146.174926,75.1014868 145.64157,77.024105 C145.073644,79.0629973 146.489343,81.5113057 148.496013,81.9059829 C149.070523,82.0206194 149.66808,82.0091558 150.310083,82.0582857 C148.206289,84.9045466 143.376452,84.8963583 141.02738,82.1270676 C137.605012,78.0951376 138.520277,71.4085533 142.895773,67.5747807 C146.308265,64.5844053 150.155344,63.8949485 154.275685,65.4654688 C158.519488,67.0834813 160.397758,70.638851 160.992022,74.9147931 C162.310597,84.4525512 153.556312,93.9460924 142.411802,92.5475269 C142.079277,92.508223 141.751691,92.4509047 141.256197,92.3772098 C142.471064,94.2081188 143.669469,95.8621599 144.704904,97.6111856 C147.78981,102.820596 148.232627,108.331338 146.303327,114.018946 C144.576504,119.105532 139.066803,123.085057 133.652579,122.949131 C131.479646,122.895088 130.279595,123.733572 128.974189,125.341759 C122.396129,133.430184 115.671561,141.39906 108.989793,149.402326 C104.531989,154.741112 100.057723,160.06516 95.5785189,165.412134 C97.0057406,166.252256 97.7135898,165.26802 98.5004548,164.331276 C107.162554,154.018902 115.834531,143.709804 124.522969,133.415445 C125.62919,132.106951 126.852287,130.893442 128.021062,129.635715 C128.207078,129.796206 128.393094,129.953422 128.57911,130.113913 C118.878283,141.928025 109.175809,153.740499 99.3548124,165.697088 C100.080769,165.697088 100.798496,165.683987 101.516222,165.700363 C111.831067,165.954201 122.149205,166.185112 132.46405,166.479892 C136.32759,166.589615 140.189484,166.841816 144.051378,167.043248 C145.416046,167.113668 146.388927,166.699339 147.363454,165.584089 C153.365358,158.72555 160.396112,153.317982 169.522429,151.262713 C184.291786,147.938254 199.727839,156.775092 204.397998,171.124308 C210.824611,190.872905 197.196043,210.351287 176.375397,211.120989 C169.716676,211.366639 163.699957,208.933069 157.833039,206.244024 C151.791628,203.476371 145.980679,200.214143 139.914576,197.503808 C134.070704,194.893371 128.880358,195.866144 125.095833,199.953754 C122.784623,202.451193 122.223282,205.534915 123.548442,208.643202 C124.881832,211.776055 127.382351,213.710136 130.916659,213.921395 C134.088811,214.108089 136.745715,213.002665 138.149891,210.046681 C138.722755,208.84136 138.930171,207.301955 138.790247,205.965621 C138.640447,204.513013 137.460149,203.826831 135.886419,203.625398 C134.956338,203.504211 133.975226,202.870435 133.293716,202.192442 C133.031976,201.930416 133.37767,200.441779 133.734887,200.315678 C134.739045,199.960305 136.01482,199.665526 136.966301,199.98487 C139.590282,200.867571 141.402705,204.578519 141.037257,207.722835 C140.535178,212.011878 137.114455,215.498466 132.980945,215.932447 C127.760968,216.481065 123.102332,213.64463 121.609264,209.005126 C119.154838,201.381798 124.501569,194.143321 132.546358,194.058162 C138.375415,193.997569 143.313898,196.532673 148.270489,199.085792 C149.765203,199.857132 151.251687,200.644849 153.088803,201.607796 C152.529108,200.001247 151.939782,198.795926 151.692858,197.525098 C150.22119,189.90832 155.013165,181.035454 162.223351,178.125324 C166.676216,176.328806 170.855819,177.334332 174.464204,180.195332 C177.866819,182.892566 178.34256,186.77383 178.001805,190.851615 C177.741711,193.959902 176.205843,196.418037 173.948956,198.681289 C174.090526,198.032774 174.218926,197.380984 174.378604,196.735744 C174.962991,194.357855 173.774463,191.550898 171.886316,190.872905 C169.677168,190.080275 167.619467,191.143119 166.254799,193.652021 C164.346898,197.154986 165.46958,200.98057 169.691983,204.254262 C175.037069,208.39919 181.251327,209.512802 187.674647,206.476572 C201.123783,200.117521 207.346272,184.85285 202.226711,170.94089 C201.997895,170.32349 201.663724,169.745395 201.062875,169.186951 L192.762931,186.176083 Z" id="Stroke-3" stroke="#FFFFFF"></path>
                <path d="M118,76.4100751 C115.144337,80.2739726 112.291835,84.1361025 109.437752,88 C109.290781,87.865665 109.145391,87.7313301 109,87.5987627 L117.532221,76 C117.688674,76.1361025 117.843547,76.2739726 118,76.4100751" id="Fill-5" fill="#FFFFFF"></path>
                <path d="M118,76.4100751 C115.144337,80.2739726 112.291835,84.1361025 109.437752,88 C109.290781,87.865665 109.145391,87.7313301 109,87.5987627 L117.532221,76 C117.688674,76.1361025 117.843547,76.2739726 118,76.4100751 Z" id="Stroke-7" stroke="#FFFFFF"></path>
            </g>
        </g>
        <g id="LEGACY" fill-rule="nonzero">
            <use fill="black" fill-opacity="1" filter="url(#filter-2)" xlink:href="#path-1"></use>
            <use fill="#FFFFFF" xlink:href="#path-1"></use>
        </g>
        <path d="M59.9288676,342 L59.9288676,325.416016 L66.0265238,325.416016 L66.0265238,322.09375 L49.8116801,322.09375 L49.8116801,325.416016 L55.8273051,325.416016 L55.8273051,342 L59.9288676,342 Z M70.4603289,342.273438 C71.9915789,342.273438 73.2357196,341.740234 74.1927508,340.673828 C74.2747821,341.202474 74.4069435,341.644531 74.5892352,342 L74.5892352,342 L78.5814227,342 L78.5814227,341.767578 C78.1986102,341.047526 78.0026467,339.985677 77.9935321,338.582031 L77.9935321,338.582031 L77.9935321,332.169922 C77.9935321,330.511068 77.4580503,329.223633 76.3870868,328.307617 C75.3161232,327.391602 73.8691831,326.933594 72.0462664,326.933594 C70.8431414,326.933594 69.758506,327.140951 68.7923602,327.555664 C67.8262144,327.970378 67.0788185,328.542318 66.5501727,329.271484 C66.0215269,330.000651 65.7572039,330.79362 65.7572039,331.650391 L65.7572039,331.650391 L69.7083758,331.650391 C69.7083758,331.094401 69.8975034,330.656901 70.2757586,330.337891 C70.6540138,330.01888 71.1758237,329.859375 71.8411883,329.859375 C72.5976987,329.859375 73.1514097,330.064453 73.5023211,330.474609 C73.8532326,330.884766 74.0286883,331.431641 74.0286883,332.115234 L74.0286883,332.115234 L74.0286883,332.962891 L72.2103289,332.962891 C70.0137144,332.972005 68.3343524,333.395833 67.172243,334.234375 C66.0101336,335.072917 65.4290789,336.276042 65.4290789,337.84375 C65.4290789,339.119792 65.9053159,340.177083 66.8577899,341.015625 C67.8102638,341.854167 69.0111102,342.273438 70.4603289,342.273438 Z M71.3216571,339.251953 C70.7200946,339.251953 70.2461362,339.092448 69.8997821,338.773438 C69.5534279,338.454427 69.3802508,338.048828 69.3802508,337.556641 L69.3802508,337.556641 L69.3939227,337.324219 C69.5215269,335.957031 70.5742612,335.273438 72.5521258,335.273438 L72.5521258,335.273438 L74.0286883,335.273438 L74.0286883,337.816406 C73.7917092,338.253906 73.4271258,338.602539 72.9349383,338.862305 C72.4427508,339.12207 71.9049904,339.251953 71.3216571,339.251953 Z M86.2554622,342.273438 C87.0757747,342.273438 87.8733007,342.154948 88.6480403,341.917969 L88.6480403,341.917969 L88.6480403,338.923828 C88.3108007,338.98763 87.9234309,339.019531 87.4859309,339.019531 C86.893483,339.019531 86.4924413,338.901042 86.2828059,338.664062 C86.0731705,338.427083 85.9683528,338.035156 85.9683528,337.488281 L85.9683528,337.488281 L85.9683528,330.105469 L88.4976497,330.105469 L88.4976497,327.207031 L85.9683528,327.207031 L85.9683528,323.570312 L82.0171809,323.570312 L82.0171809,327.207031 L79.8570247,327.207031 L79.8570247,330.105469 L82.0171809,330.105469 L82.0171809,338.076172 C82.0718684,340.874349 83.4846288,342.273438 86.2554622,342.273438 Z M95.9255954,342.273438 C96.7459079,342.273438 97.5434339,342.154948 98.3181735,341.917969 L98.3181735,341.917969 L98.3181735,338.923828 C97.9809339,338.98763 97.5935641,339.019531 97.1560641,339.019531 C96.5636162,339.019531 96.1625746,338.901042 95.9529391,338.664062 C95.7433037,338.427083 95.638486,338.035156 95.638486,337.488281 L95.638486,337.488281 L95.638486,330.105469 L98.1677829,330.105469 L98.1677829,327.207031 L95.638486,327.207031 L95.638486,323.570312 L91.6873141,323.570312 L91.6873141,327.207031 L89.5271579,327.207031 L89.5271579,330.105469 L91.6873141,330.105469 L91.6873141,338.076172 C91.7420016,340.874349 93.1547621,342.273438 95.9255954,342.273438 Z M106.566432,342.273438 C108.699244,342.273438 110.399114,341.587565 111.666041,340.21582 C112.932968,338.844076 113.566432,337.023438 113.566432,334.753906 L113.566432,334.753906 L113.539088,333.742188 C113.393255,331.645833 112.689153,329.986979 111.426783,328.765625 C110.164414,327.544271 108.535182,326.933594 106.539088,326.933594 C105.135442,326.933594 103.902695,327.248047 102.840846,327.876953 C101.778997,328.505859 100.96552,329.394531 100.400416,330.542969 C99.8353119,331.691406 99.5527599,332.999349 99.5527599,334.466797 L99.5527599,334.466797 L99.5527599,334.644531 C99.5527599,336.996094 100.188502,338.855469 101.459986,340.222656 C102.731471,341.589844 104.433619,342.273438 106.566432,342.273438 Z M106.566432,339.087891 C105.582057,339.087891 104.825546,338.716471 104.2969,337.973633 C103.768255,337.230794 103.503932,336.157552 103.503932,334.753906 C103.503932,333.177083 103.768255,332.012695 104.2969,331.260742 C104.825546,330.508789 105.572942,330.132812 106.539088,330.132812 C107.514348,330.132812 108.270859,330.511068 108.808619,331.267578 C109.34638,332.024089 109.61526,333.090495 109.61526,334.466797 C109.61526,336.080078 109.34638,337.253581 108.808619,337.987305 C108.270859,338.721029 107.523463,339.087891 106.566432,339.087891 Z M122.607659,342.273438 C124.740471,342.273438 126.440341,341.587565 127.707268,340.21582 C128.974195,338.844076 129.607659,337.023438 129.607659,334.753906 L129.607659,334.753906 L129.580315,333.742188 C129.434482,331.645833 128.73038,329.986979 127.46801,328.765625 C126.20564,327.544271 124.576409,326.933594 122.580315,326.933594 C121.176669,326.933594 119.943922,327.248047 118.882073,327.876953 C117.820224,328.505859 117.006747,329.394531 116.441643,330.542969 C115.876539,331.691406 115.593987,332.999349 115.593987,334.466797 L115.593987,334.466797 L115.593987,334.644531 C115.593987,336.996094 116.229729,338.855469 117.501213,340.222656 C118.772698,341.589844 120.474846,342.273438 122.607659,342.273438 Z M122.607659,339.087891 C121.623284,339.087891 120.866773,338.716471 120.338127,337.973633 C119.809482,337.230794 119.545159,336.157552 119.545159,334.753906 C119.545159,333.177083 119.809482,332.012695 120.338127,331.260742 C120.866773,330.508789 121.614169,330.132812 122.580315,330.132812 C123.555575,330.132812 124.312086,330.511068 124.849846,331.267578 C125.387607,332.024089 125.656487,333.090495 125.656487,334.466797 C125.656487,336.080078 125.387607,337.253581 124.849846,337.987305 C124.312086,338.721029 123.56469,339.087891 122.607659,339.087891 Z M147.3073,342.273438 C149.640633,342.273438 151.520516,341.658203 152.946949,340.427734 C154.373381,339.197266 155.164071,337.511068 155.319019,335.369141 L155.319019,335.369141 L151.217456,335.369141 C151.126311,336.58138 150.768563,337.476888 150.144214,338.055664 C149.519865,338.63444 148.574227,338.923828 147.3073,338.923828 C145.903654,338.923828 144.875985,338.427083 144.224292,337.433594 C143.5726,336.440104 143.246753,334.867839 143.246753,332.716797 L143.246753,332.716797 L143.246753,331.212891 C143.264982,329.152995 143.613615,327.633138 144.292652,326.65332 C144.971688,325.673503 145.9948,325.183594 147.361988,325.183594 C148.6198,325.183594 149.556324,325.472982 150.171558,326.051758 C150.786792,326.630534 151.14454,327.5625 151.2448,328.847656 L151.2448,328.847656 L155.346363,328.847656 C155.127613,326.623698 154.316415,324.896484 152.912769,323.666016 C151.509123,322.435547 149.658863,321.820312 147.361988,321.820312 C145.703133,321.820312 144.247079,322.209961 142.993824,322.989258 C141.740568,323.768555 140.776701,324.88737 140.102222,326.345703 C139.427743,327.804036 139.090503,329.490234 139.090503,331.404297 L139.090503,331.404297 L139.090503,332.621094 C139.090503,335.619792 139.821949,337.97819 141.284839,339.696289 C142.74773,341.414388 144.755217,342.273438 147.3073,342.273438 Z M164.360246,342.273438 C166.493058,342.273438 168.192928,341.587565 169.459855,340.21582 C170.726782,338.844076 171.360246,337.023438 171.360246,334.753906 L171.360246,334.753906 L171.332902,333.742188 C171.187069,331.645833 170.482967,329.986979 169.220597,328.765625 C167.958228,327.544271 166.328996,326.933594 164.332902,326.933594 C162.929256,326.933594 161.696509,327.248047 160.63466,327.876953 C159.572811,328.505859 158.759334,329.394531 158.19423,330.542969 C157.629126,331.691406 157.346574,332.999349 157.346574,334.466797 L157.346574,334.466797 L157.346574,334.644531 C157.346574,336.996094 157.982316,338.855469 159.253801,340.222656 C160.525285,341.589844 162.227433,342.273438 164.360246,342.273438 Z M164.360246,339.087891 C163.375871,339.087891 162.61936,338.716471 162.090715,337.973633 C161.562069,337.230794 161.297746,336.157552 161.297746,334.753906 C161.297746,333.177083 161.562069,332.012695 162.090715,331.260742 C162.61936,330.508789 163.366756,330.132812 164.332902,330.132812 C165.308163,330.132812 166.064673,330.511068 166.602433,331.267578 C167.140194,332.024089 167.409074,333.090495 167.409074,334.466797 C167.409074,336.080078 167.140194,337.253581 166.602433,337.987305 C166.064673,338.721029 165.317277,339.087891 164.360246,339.087891 Z M178.172957,342 L178.172957,321 L174.208113,321 L174.208113,342 L178.172957,342 Z M185.805981,342 L185.805981,321 L181.841137,321 L181.841137,342 L185.805981,342 Z M196.077677,342.273438 C197.308146,342.273438 198.429239,342.038737 199.440958,341.569336 C200.452677,341.099935 201.25476,340.445964 201.847208,339.607422 L201.847208,339.607422 L199.905802,337.433594 C199.049031,338.536458 197.859578,339.087891 196.337442,339.087891 C195.353067,339.087891 194.539591,338.796224 193.897013,338.212891 C193.254435,337.629557 192.869343,336.854818 192.741739,335.888672 L192.741739,335.888672 L202.161661,335.888672 L202.161661,334.275391 C202.161661,331.932943 201.580606,330.123698 200.418497,328.847656 C199.256388,327.571615 197.663614,326.933594 195.640177,326.933594 C194.291218,326.933594 193.090372,327.250326 192.037638,327.883789 C190.984903,328.517253 190.171427,329.419596 189.597208,330.59082 C189.022989,331.762044 188.73588,333.090495 188.73588,334.576172 L188.73588,334.576172 L188.73588,334.958984 C188.73588,337.173828 189.417195,338.946615 190.779825,340.277344 C192.142455,341.608073 193.908406,342.273438 196.077677,342.273438 Z M198.278849,333.195312 L192.782755,333.195312 C192.919474,332.210938 193.231648,331.454427 193.719278,330.925781 C194.206909,330.397135 194.842651,330.132812 195.626505,330.132812 C196.465047,330.132812 197.112182,330.37207 197.567911,330.850586 C198.02364,331.329102 198.26062,332.005859 198.278849,332.880859 L198.278849,332.880859 L198.278849,333.195312 Z M210.833748,342.273438 C211.963956,342.273438 212.996182,342.043294 213.930427,341.583008 C214.864672,341.122721 215.600675,340.475586 216.138435,339.641602 C216.676195,338.807617 216.949633,337.889323 216.958748,336.886719 L216.958748,336.886719 L213.253669,336.886719 C213.23544,337.552083 212.998461,338.085286 212.542732,338.486328 C212.087003,338.88737 211.494555,339.087891 210.765388,339.087891 C209.817471,339.087891 209.111091,338.755208 208.646248,338.089844 C208.181404,337.424479 207.948982,336.330729 207.948982,334.808594 L207.948982,334.808594 L207.948982,334.398438 C207.948982,332.894531 208.183682,331.807617 208.653083,331.137695 C209.122485,330.467773 209.817471,330.132812 210.738044,330.132812 C211.48544,330.132812 212.087003,330.37207 212.542732,330.850586 C212.998461,331.329102 213.23544,331.951172 213.253669,332.716797 L213.253669,332.716797 L216.958748,332.716797 C216.940518,330.966797 216.373136,329.56543 215.256599,328.512695 C214.140063,327.459961 212.656664,326.933594 210.806404,326.933594 C208.69182,326.933594 207.028409,327.61263 205.816169,328.970703 C204.60393,330.328776 203.99781,332.147135 203.99781,334.425781 L203.99781,334.425781 L203.99781,334.685547 C203.99781,337.055339 204.608487,338.912435 205.829841,340.256836 C207.051195,341.601237 208.719164,342.273438 210.833748,342.273438 Z M224.441381,342.273438 C225.261693,342.273438 226.059219,342.154948 226.833959,341.917969 L226.833959,341.917969 L226.833959,338.923828 C226.496719,338.98763 226.10935,339.019531 225.67185,339.019531 C225.079402,339.019531 224.67836,338.901042 224.468725,338.664062 C224.259089,338.427083 224.154271,338.035156 224.154271,337.488281 L224.154271,337.488281 L224.154271,330.105469 L226.683568,330.105469 L226.683568,327.207031 L224.154271,327.207031 L224.154271,323.570312 L220.2031,323.570312 L220.2031,327.207031 L218.042943,327.207031 L218.042943,330.105469 L220.2031,330.105469 L220.2031,338.076172 C220.257787,340.874349 221.670547,342.273438 224.441381,342.273438 Z M231.281436,325.429688 C231.9468,325.429688 232.482282,325.238281 232.887881,324.855469 C233.29348,324.472656 233.49628,323.980469 233.49628,323.378906 C233.49628,322.786458 233.295759,322.298828 232.894717,321.916016 C232.493675,321.533203 231.955915,321.341797 231.281436,321.341797 C230.597842,321.341797 230.057803,321.533203 229.661319,321.916016 C229.264834,322.298828 229.066592,322.786458 229.066592,323.378906 C229.066592,323.980469 229.269392,324.472656 229.674991,324.855469 C230.08059,325.238281 230.616071,325.429688 231.281436,325.429688 Z M233.263858,342 L233.263858,327.207031 L229.299014,327.207031 L229.299014,342 L233.263858,342 Z M244.150788,342 L249.141022,327.207031 L245.012116,327.207031 L242.264069,337.173828 L239.516022,327.207031 L235.387116,327.207031 L240.37735,342 L244.150788,342 Z M257.717405,342.273438 C258.947874,342.273438 260.068968,342.038737 261.080687,341.569336 C262.092405,341.099935 262.894489,340.445964 263.486937,339.607422 L263.486937,339.607422 L261.54553,337.433594 C260.68876,338.536458 259.499306,339.087891 257.977171,339.087891 C256.992796,339.087891 256.179319,338.796224 255.536741,338.212891 C254.894163,337.629557 254.509072,336.854818 254.381468,335.888672 L254.381468,335.888672 L263.80139,335.888672 L263.80139,334.275391 C263.80139,331.932943 263.220335,330.123698 262.058226,328.847656 C260.896116,327.571615 259.303343,326.933594 257.279905,326.933594 C255.930947,326.933594 254.730101,327.250326 253.677366,327.883789 C252.624632,328.517253 251.811155,329.419596 251.236937,330.59082 C250.662718,331.762044 250.375609,333.090495 250.375609,334.576172 L250.375609,334.576172 L250.375609,334.958984 C250.375609,337.173828 251.056924,338.946615 252.419554,340.277344 C253.782184,341.608073 255.548135,342.273438 257.717405,342.273438 Z M259.918577,333.195312 L254.422484,333.195312 C254.559202,332.210938 254.871377,331.454427 255.359007,330.925781 C255.846637,330.397135 256.482379,330.132812 257.266234,330.132812 C258.104775,330.132812 258.751911,330.37207 259.20764,330.850586 C259.663369,331.329102 259.900348,332.005859 259.918577,332.880859 L259.918577,332.880859 L259.918577,333.195312 Z" id="TattooCollective" fill="#FFCF66" fill-rule="nonzero"></path>
    </g>
</svg>