<?xml version="1.0" encoding="UTF-8"?>
<svg width="28px" height="28px" viewBox="0 0 28 28" version="1.1" xmlns="http://www.w3.org/2000/svg" xmlns:xlink="http://www.w3.org/1999/xlink">
    <!-- Generator: Sketch 63.1 (92452) - https://sketch.com -->
    <title>menu-icon__black</title>
    <desc>Created with Sketch.</desc>
    <g id="menu-icon__black" stroke="none" stroke-width="1" fill="none" fill-rule="evenodd">
        <g id="Group" transform="translate(14.628430, 14.525008) scale(-1, 1) translate(-14.628430, -14.525008) translate(5.128430, 6.025008)" fill="#000000" stroke="#000000">
            <path d="M12.7605027,1.95176216 L0.975881081,1.95176216 C0.436281081,1.95176216 2.13162821e-14,1.51548108 2.13162821e-14,0.975881081 C2.13162821e-14,0.436281081 0.436281081,-1.14352972e-14 0.975881081,-1.14352972e-14 L12.7605027,-1.14352972e-14 C13.3001027,-1.14352972e-14 13.7363838,0.436281081 13.7363838,0.975881081 C13.7363838,1.51548108 13.3001027,1.95176216 12.7605027,1.95176216 Z" id="Fill-1"></path>
            <path d="M17.8445432,9.42352689 L0.975881081,9.42352689 C0.436281081,9.42352689 -4.97379915e-14,8.98724324 -4.97379915e-14,8.44764324 C-4.97379915e-14,7.90804324 0.436281081,7.47176216 0.975881081,7.47176216 L17.8445432,7.47276608 C18.3841432,7.47276608 18.8204243,7.90904716 18.8204243,8.44864716 C18.8204243,8.98724581 18.3841432,9.42352689 17.8445432,9.42352689 L17.8445432,9.42352689 Z" id="Fill-2"></path>
            <path d="M12.7605027,16.8952891 L0.975881081,16.8952891 C0.436281081,16.8952891 2.13162821e-14,16.459008 2.13162821e-14,15.919408 C2.13162821e-14,15.379808 0.436281081,14.9435269 0.975881081,14.9435269 L12.7605027,14.9435269 C13.3001027,14.9435269 13.7363838,15.379808 13.7363838,15.919408 C13.7363838,16.459008 13.3001027,16.8952891 12.7605027,16.8952891 Z" id="Fill-3"></path>
        </g>
    </g>
</svg>