<?xml version="1.0" encoding="utf-8"?>
<!-- Generator: Adobe Illustrator 24.0.3, SVG Export Plug-In . SVG Version: 6.00 Build 0)  -->
<svg version="1.1" id="Layer_1" xmlns="http://www.w3.org/2000/svg" xmlns:xlink="http://www.w3.org/1999/xlink" x="0px" y="0px"
	 viewBox="0 0 256 185" style="enable-background:new 0 0 256 185;" xml:space="preserve">
<style type="text/css">
	.st0{fill:url(#SVGID_1_);}
	.st1{fill:url(#SVGID_2_);}
	.st2{fill:url(#SVGID_3_);}
	.st3{fill:url(#SVGID_4_);}
	.st4{fill:url(#SVGID_5_);}
	.st5{fill:url(#SVGID_6_);}
	.st6{fill:url(#SVGID_7_);}
	.st7{fill:url(#SVGID_8_);}
	.st8{fill:url(#SVGID_9_);}
	.st9{fill:url(#SVGID_10_);}
	.st10{fill:url(#SVGID_11_);}
	.st11{fill:url(#SVGID_12_);}
	.st12{fill:url(#SVGID_13_);}
	.st13{fill:url(#SVGID_14_);}
	.st14{fill:url(#SVGID_15_);}
	.st15{fill:url(#SVGID_16_);}
	.st16{fill:url(#SVGID_17_);}
	.st17{fill:url(#SVGID_18_);}
	.st18{fill:url(#SVGID_19_);}
	.st19{fill:url(#SVGID_20_);}
	.st20{fill:url(#SVGID_21_);}
	.st21{fill:url(#SVGID_22_);}
	.st22{fill:url(#SVGID_23_);}
	.st23{fill:url(#SVGID_24_);}
	.st24{fill:url(#SVGID_25_);}
	.st25{fill:url(#SVGID_26_);}
	.st26{fill:url(#SVGID_27_);}
	.st27{fill:url(#SVGID_28_);}
	.st28{fill:url(#SVGID_29_);}
	.st29{fill:url(#SVGID_30_);}
	.st30{fill:url(#SVGID_31_);}
	.st31{fill:url(#SVGID_32_);}
	.st32{fill:url(#SVGID_33_);}
	.st33{fill:url(#SVGID_34_);}
</style>
<g id="_x34__1_">
	<g>
		<g>
			<g>
				<g>
					<g>
						<linearGradient id="SVGID_1_" gradientUnits="userSpaceOnUse" x1="-17.5079" y1="126.3075" x2="215.1584" y2="-37.0257">
							<stop  offset="8.108110e-03" style="stop-color:#EDCE8C"/>
							<stop  offset="0.1189" style="stop-color:#D4A559"/>
							<stop  offset="0.1421" style="stop-color:#DAAE62"/>
							<stop  offset="0.2314" style="stop-color:#EECB80"/>
							<stop  offset="0.3079" style="stop-color:#FBDE92"/>
							<stop  offset="0.3622" style="stop-color:#FFE499"/>
							<stop  offset="0.6946" style="stop-color:#CFA24B"/>
							<stop  offset="1" style="stop-color:#FFEDAD"/>
						</linearGradient>
						<path class="st0" d="M124.73,34.4l-7.95-7.95l7.95-7.95l7.95,7.95L124.73,34.4z M120.32,26.46l4.41,4.41l4.41-4.41l-4.41-4.41
							L120.32,26.46z"/>
					</g>
					<g>
						<linearGradient id="SVGID_2_" gradientUnits="userSpaceOnUse" x1="-26.2744" y1="113.8177" x2="206.3919" y2="-49.5156">
							<stop  offset="8.108110e-03" style="stop-color:#EDCE8C"/>
							<stop  offset="0.1189" style="stop-color:#D4A559"/>
							<stop  offset="0.1421" style="stop-color:#DAAE62"/>
							<stop  offset="0.2314" style="stop-color:#EECB80"/>
							<stop  offset="0.3079" style="stop-color:#FBDE92"/>
							<stop  offset="0.3622" style="stop-color:#FFE499"/>
							<stop  offset="0.6946" style="stop-color:#CFA24B"/>
							<stop  offset="1" style="stop-color:#FFEDAD"/>
						</linearGradient>
						<path class="st1" d="M124.73,15.76l-7.95-7.95l7.95-7.95l7.95,7.95L124.73,15.76z M120.32,7.81l4.41,4.41l4.41-4.41
							l-4.41-4.41L120.32,7.81z"/>
					</g>
				</g>
			</g>
			<g>
				<g>
					<linearGradient id="SVGID_3_" gradientUnits="userSpaceOnUse" x1="-24.9765" y1="115.6682" x2="207.6903" y2="-47.6654">
						<stop  offset="8.108110e-03" style="stop-color:#EDCE8C"/>
						<stop  offset="0.1189" style="stop-color:#D4A559"/>
						<stop  offset="0.1421" style="stop-color:#DAAE62"/>
						<stop  offset="0.2314" style="stop-color:#EECB80"/>
						<stop  offset="0.3079" style="stop-color:#FBDE92"/>
						<stop  offset="0.3622" style="stop-color:#FFE499"/>
						<stop  offset="0.6946" style="stop-color:#CFA24B"/>
						<stop  offset="1" style="stop-color:#FFEDAD"/>
					</linearGradient>
					<path class="st2" d="M115.38,25.53l-8.4-8.4l8.4-8.4l8.4,8.4L115.38,25.53z M110.52,17.13l4.86,4.86l4.86-4.86l-4.86-4.86
						L110.52,17.13z"/>
				</g>
				<g>
					<linearGradient id="SVGID_4_" gradientUnits="userSpaceOnUse" x1="-18.8056" y1="124.4567" x2="213.8605" y2="-38.8764">
						<stop  offset="8.108110e-03" style="stop-color:#EDCE8C"/>
						<stop  offset="0.1189" style="stop-color:#D4A559"/>
						<stop  offset="0.1421" style="stop-color:#DAAE62"/>
						<stop  offset="0.2314" style="stop-color:#EECB80"/>
						<stop  offset="0.3079" style="stop-color:#FBDE92"/>
						<stop  offset="0.3622" style="stop-color:#FFE499"/>
						<stop  offset="0.6946" style="stop-color:#CFA24B"/>
						<stop  offset="1" style="stop-color:#FFEDAD"/>
					</linearGradient>
					<path class="st3" d="M134.07,25.53l-8.4-8.4l8.4-8.4l8.4,8.4L134.07,25.53z M129.21,17.13l4.86,4.86l4.86-4.86l-4.86-4.86
						L129.21,17.13z"/>
				</g>
			</g>
		</g>
		<g>
			<g>
				<g>
					<g>
						<linearGradient id="SVGID_5_" gradientUnits="userSpaceOnUse" x1="42.2565" y1="211.44" x2="274.9228" y2="48.1067">
							<stop  offset="8.108110e-03" style="stop-color:#EDCE8C"/>
							<stop  offset="0.1189" style="stop-color:#D4A559"/>
							<stop  offset="0.1421" style="stop-color:#DAAE62"/>
							<stop  offset="0.2314" style="stop-color:#EECB80"/>
							<stop  offset="0.3079" style="stop-color:#FBDE92"/>
							<stop  offset="0.3622" style="stop-color:#FFE499"/>
							<stop  offset="0.6946" style="stop-color:#CFA24B"/>
							<stop  offset="1" style="stop-color:#FFEDAD"/>
						</linearGradient>
						<path class="st4" d="M124.73,161.49l-7.95-7.95l7.95-7.95l7.95,7.95L124.73,161.49z M120.32,153.54l4.41,4.41l4.41-4.41
							l-4.41-4.41L120.32,153.54z"/>
					</g>
					<g>
						<linearGradient id="SVGID_6_" gradientUnits="userSpaceOnUse" x1="51.0238" y1="223.9289" x2="283.69" y2="60.5957">
							<stop  offset="8.108110e-03" style="stop-color:#EDCE8C"/>
							<stop  offset="0.1189" style="stop-color:#D4A559"/>
							<stop  offset="0.1421" style="stop-color:#DAAE62"/>
							<stop  offset="0.2314" style="stop-color:#EECB80"/>
							<stop  offset="0.3079" style="stop-color:#FBDE92"/>
							<stop  offset="0.3622" style="stop-color:#FFE499"/>
							<stop  offset="0.6946" style="stop-color:#CFA24B"/>
							<stop  offset="1" style="stop-color:#FFEDAD"/>
						</linearGradient>
						<path class="st5" d="M124.73,180.13l-7.95-7.95l7.95-7.95l7.95,7.95L124.73,180.13z M120.32,172.19l4.41,4.41l4.41-4.41
							l-4.41-4.41L120.32,172.19z"/>
					</g>
				</g>
			</g>
			<g>
				<g>
					<linearGradient id="SVGID_7_" gradientUnits="userSpaceOnUse" x1="43.5549" y1="213.2897" x2="276.2218" y2="49.9561">
						<stop  offset="8.108110e-03" style="stop-color:#EDCE8C"/>
						<stop  offset="0.1189" style="stop-color:#D4A559"/>
						<stop  offset="0.1421" style="stop-color:#DAAE62"/>
						<stop  offset="0.2314" style="stop-color:#EECB80"/>
						<stop  offset="0.3079" style="stop-color:#FBDE92"/>
						<stop  offset="0.3622" style="stop-color:#FFE499"/>
						<stop  offset="0.6946" style="stop-color:#CFA24B"/>
						<stop  offset="1" style="stop-color:#FFEDAD"/>
					</linearGradient>
					<path class="st6" d="M115.38,171.26l-8.4-8.4l8.4-8.4l8.4,8.4L115.38,171.26z M110.52,162.87l4.86,4.86l4.86-4.86l-4.86-4.86
						L110.52,162.87z"/>
				</g>
				<g>
					<linearGradient id="SVGID_8_" gradientUnits="userSpaceOnUse" x1="49.7251" y1="222.0786" x2="282.3913" y2="58.7455">
						<stop  offset="8.108110e-03" style="stop-color:#EDCE8C"/>
						<stop  offset="0.1189" style="stop-color:#D4A559"/>
						<stop  offset="0.1421" style="stop-color:#DAAE62"/>
						<stop  offset="0.2314" style="stop-color:#EECB80"/>
						<stop  offset="0.3079" style="stop-color:#FBDE92"/>
						<stop  offset="0.3622" style="stop-color:#FFE499"/>
						<stop  offset="0.6946" style="stop-color:#CFA24B"/>
						<stop  offset="1" style="stop-color:#FFEDAD"/>
					</linearGradient>
					<path class="st7" d="M134.07,171.26l-8.4-8.4l8.4-8.4l8.4,8.4L134.07,171.26z M129.21,162.87l4.86,4.86l4.86-4.86l-4.86-4.86
						L129.21,162.87z"/>
				</g>
			</g>
		</g>
	</g>
	<g>
		<g>
			<linearGradient id="SVGID_9_" gradientUnits="userSpaceOnUse" x1="-9.018" y1="138.3991" x2="223.6485" y2="-24.9342">
				<stop  offset="8.108110e-03" style="stop-color:#EDCE8C"/>
				<stop  offset="0.1189" style="stop-color:#D4A559"/>
				<stop  offset="0.1421" style="stop-color:#DAAE62"/>
				<stop  offset="0.2314" style="stop-color:#EECB80"/>
				<stop  offset="0.3079" style="stop-color:#FBDE92"/>
				<stop  offset="0.3622" style="stop-color:#FFE499"/>
				<stop  offset="0.6946" style="stop-color:#CFA24B"/>
				<stop  offset="1" style="stop-color:#FFEDAD"/>
			</linearGradient>
			<polygon class="st8" points="138.03,28.02 136.97,26.96 144.08,19.85 197.42,19.85 197.42,14.42 144.08,14.42 136.97,7.31 
				138.03,6.25 144.7,12.92 198.92,12.92 198.92,21.35 144.7,21.35 			"/>
		</g>
	</g>
	<g>
		<linearGradient id="SVGID_10_" gradientUnits="userSpaceOnUse" x1="3.4113" y1="156.1047" x2="236.0775" y2="-7.2285">
			<stop  offset="8.108110e-03" style="stop-color:#EDCE8C"/>
			<stop  offset="0.1189" style="stop-color:#D4A559"/>
			<stop  offset="0.1421" style="stop-color:#DAAE62"/>
			<stop  offset="0.2314" style="stop-color:#EECB80"/>
			<stop  offset="0.3079" style="stop-color:#FBDE92"/>
			<stop  offset="0.3622" style="stop-color:#FFE499"/>
			<stop  offset="0.6946" style="stop-color:#CFA24B"/>
			<stop  offset="1" style="stop-color:#FFEDAD"/>
		</linearGradient>
		<polygon class="st9" points="242.36,27.01 216.66,27.01 216.66,17.87 147.41,17.87 147.41,16.37 218.16,16.37 218.16,25.51 
			242.36,25.51 		"/>
	</g>
	<g>
		<linearGradient id="SVGID_11_" gradientUnits="userSpaceOnUse" x1="13.921" y1="171.0764" x2="246.5871" y2="7.7433">
			<stop  offset="8.108110e-03" style="stop-color:#EDCE8C"/>
			<stop  offset="0.1189" style="stop-color:#D4A559"/>
			<stop  offset="0.1421" style="stop-color:#DAAE62"/>
			<stop  offset="0.2314" style="stop-color:#EECB80"/>
			<stop  offset="0.3079" style="stop-color:#FBDE92"/>
			<stop  offset="0.3622" style="stop-color:#FFE499"/>
			<stop  offset="0.6946" style="stop-color:#CFA24B"/>
			<stop  offset="1" style="stop-color:#FFEDAD"/>
		</linearGradient>
		<path class="st10" d="M243.11,27.01h-19.77V7.24h19.77V27.01z M224.84,25.51h16.77V8.74h-16.77V25.51z"/>
	</g>
	<g>
		<linearGradient id="SVGID_12_" gradientUnits="userSpaceOnUse" x1="15.7145" y1="173.6322" x2="248.3823" y2="10.298">
			<stop  offset="8.108110e-03" style="stop-color:#EDCE8C"/>
			<stop  offset="0.1189" style="stop-color:#D4A559"/>
			<stop  offset="0.1421" style="stop-color:#DAAE62"/>
			<stop  offset="0.2314" style="stop-color:#EECB80"/>
			<stop  offset="0.3079" style="stop-color:#FBDE92"/>
			<stop  offset="0.3622" style="stop-color:#FFE499"/>
			<stop  offset="0.6946" style="stop-color:#CFA24B"/>
			<stop  offset="1" style="stop-color:#FFEDAD"/>
		</linearGradient>
		<path class="st11" d="M231.1,39.25h-19.77V19.48h19.77V39.25z M212.83,37.75h16.77V20.98h-16.77V37.75z"/>
	</g>
	<g>
		<linearGradient id="SVGID_13_" gradientUnits="userSpaceOnUse" x1="15.7713" y1="173.7103" x2="248.4377" y2="10.3771">
			<stop  offset="8.108110e-03" style="stop-color:#EDCE8C"/>
			<stop  offset="0.1189" style="stop-color:#D4A559"/>
			<stop  offset="0.1421" style="stop-color:#DAAE62"/>
			<stop  offset="0.2314" style="stop-color:#EECB80"/>
			<stop  offset="0.3079" style="stop-color:#FBDE92"/>
			<stop  offset="0.3622" style="stop-color:#FFE499"/>
			<stop  offset="0.6946" style="stop-color:#CFA24B"/>
			<stop  offset="1" style="stop-color:#FFEDAD"/>
		</linearGradient>
		<path class="st12" d="M224.84,35.13h-9.63v-9.63h9.63V35.13z M216.72,33.63h6.63v-6.63h-6.63V33.63z"/>
	</g>
	<g>
		<g>
			<linearGradient id="SVGID_14_" gradientUnits="userSpaceOnUse" x1="59.5126" y1="236.0212" x2="292.1792" y2="72.6878">
				<stop  offset="8.108110e-03" style="stop-color:#EDCE8C"/>
				<stop  offset="0.1189" style="stop-color:#D4A559"/>
				<stop  offset="0.1421" style="stop-color:#DAAE62"/>
				<stop  offset="0.2314" style="stop-color:#EECB80"/>
				<stop  offset="0.3079" style="stop-color:#FBDE92"/>
				<stop  offset="0.3622" style="stop-color:#FFE499"/>
				<stop  offset="0.6946" style="stop-color:#CFA24B"/>
				<stop  offset="1" style="stop-color:#FFEDAD"/>
			</linearGradient>
			<polygon class="st13" points="138.03,173.75 136.97,172.69 144.08,165.58 197.42,165.58 197.42,160.15 144.08,160.15 
				136.97,153.04 138.03,151.98 144.7,158.65 198.92,158.65 198.92,167.08 144.7,167.08 			"/>
		</g>
	</g>
	<g>
		<linearGradient id="SVGID_15_" gradientUnits="userSpaceOnUse" x1="67.6575" y1="247.623" x2="300.324" y2="84.2896">
			<stop  offset="8.108110e-03" style="stop-color:#EDCE8C"/>
			<stop  offset="0.1189" style="stop-color:#D4A559"/>
			<stop  offset="0.1421" style="stop-color:#DAAE62"/>
			<stop  offset="0.2314" style="stop-color:#EECB80"/>
			<stop  offset="0.3079" style="stop-color:#FBDE92"/>
			<stop  offset="0.3622" style="stop-color:#FFE499"/>
			<stop  offset="0.6946" style="stop-color:#CFA24B"/>
			<stop  offset="1" style="stop-color:#FFEDAD"/>
		</linearGradient>
		<polygon class="st14" points="218.16,163.63 147.41,163.63 147.41,162.13 216.66,162.13 216.66,152.99 242.36,152.99 
			242.36,154.49 218.16,154.49 		"/>
	</g>
	<g>
		<linearGradient id="SVGID_16_" gradientUnits="userSpaceOnUse" x1="82.4631" y1="268.7138" x2="315.1292" y2="105.3808">
			<stop  offset="8.108110e-03" style="stop-color:#EDCE8C"/>
			<stop  offset="0.1189" style="stop-color:#D4A559"/>
			<stop  offset="0.1421" style="stop-color:#DAAE62"/>
			<stop  offset="0.2314" style="stop-color:#EECB80"/>
			<stop  offset="0.3079" style="stop-color:#FBDE92"/>
			<stop  offset="0.3622" style="stop-color:#FFE499"/>
			<stop  offset="0.6946" style="stop-color:#CFA24B"/>
			<stop  offset="1" style="stop-color:#FFEDAD"/>
		</linearGradient>
		<path class="st15" d="M243.11,172.76h-19.77v-19.77h19.77V172.76z M224.84,171.26h16.77v-16.77h-16.77V171.26z"/>
	</g>
	<g>
		<linearGradient id="SVGID_17_" gradientUnits="userSpaceOnUse" x1="72.7393" y1="254.8631" x2="305.4071" y2="91.5288">
			<stop  offset="8.108110e-03" style="stop-color:#EDCE8C"/>
			<stop  offset="0.1189" style="stop-color:#D4A559"/>
			<stop  offset="0.1421" style="stop-color:#DAAE62"/>
			<stop  offset="0.2314" style="stop-color:#EECB80"/>
			<stop  offset="0.3079" style="stop-color:#FBDE92"/>
			<stop  offset="0.3622" style="stop-color:#FFE499"/>
			<stop  offset="0.6946" style="stop-color:#CFA24B"/>
			<stop  offset="1" style="stop-color:#FFEDAD"/>
		</linearGradient>
		<path class="st16" d="M231.1,160.52h-19.77v-19.77h19.77V160.52z M212.83,159.02h16.77v-16.77h-16.77V159.02z"/>
	</g>
	<g>
		<linearGradient id="SVGID_18_" gradientUnits="userSpaceOnUse" x1="71.8993" y1="253.6665" x2="304.5657" y2="90.3332">
			<stop  offset="8.108110e-03" style="stop-color:#EDCE8C"/>
			<stop  offset="0.1189" style="stop-color:#D4A559"/>
			<stop  offset="0.1421" style="stop-color:#DAAE62"/>
			<stop  offset="0.2314" style="stop-color:#EECB80"/>
			<stop  offset="0.3079" style="stop-color:#FBDE92"/>
			<stop  offset="0.3622" style="stop-color:#FFE499"/>
			<stop  offset="0.6946" style="stop-color:#CFA24B"/>
			<stop  offset="1" style="stop-color:#FFEDAD"/>
		</linearGradient>
		<path class="st17" d="M224.84,154.49h-9.63v-9.63h9.63V154.49z M216.72,152.99h6.63v-6.63h-6.63V152.99z"/>
	</g>
	<g>
		<linearGradient id="SVGID_19_" gradientUnits="userSpaceOnUse" x1="45.9564" y1="216.71" x2="278.6228" y2="53.3767">
			<stop  offset="8.108110e-03" style="stop-color:#EDCE8C"/>
			<stop  offset="0.1189" style="stop-color:#D4A559"/>
			<stop  offset="0.1421" style="stop-color:#DAAE62"/>
			<stop  offset="0.2314" style="stop-color:#EECB80"/>
			<stop  offset="0.3079" style="stop-color:#FBDE92"/>
			<stop  offset="0.3622" style="stop-color:#FFE499"/>
			<stop  offset="0.6946" style="stop-color:#CFA24B"/>
			<stop  offset="1" style="stop-color:#FFEDAD"/>
		</linearGradient>
		<polygon class="st18" points="224.84,153.74 223.34,153.74 223.34,146.77 235.86,146.77 235.86,127.4 229.6,127.4 229.6,52.21 
			235.86,52.21 235.86,33.23 223.34,33.23 223.34,26.26 224.84,26.26 224.84,31.73 237.36,31.73 237.36,53.71 231.1,53.71 
			231.1,125.9 237.36,125.9 237.36,148.27 224.84,148.27 		"/>
	</g>
	<g>
		<linearGradient id="SVGID_20_" gradientUnits="userSpaceOnUse" x1="48.8628" y1="220.9223" x2="281.5294" y2="57.5889">
			<stop  offset="8.108110e-03" style="stop-color:#EDCE8C"/>
			<stop  offset="0.1189" style="stop-color:#D4A559"/>
			<stop  offset="0.1421" style="stop-color:#DAAE62"/>
			<stop  offset="0.2314" style="stop-color:#EECB80"/>
			<stop  offset="0.3079" style="stop-color:#FBDE92"/>
			<stop  offset="0.3622" style="stop-color:#FFE499"/>
			<stop  offset="0.6946" style="stop-color:#CFA24B"/>
			<stop  offset="1" style="stop-color:#FFEDAD"/>
		</linearGradient>
		<rect x="233.86" y="56.08" class="st19" width="3" height="67.83"/>
	</g>
	<g>
		<g>
			<linearGradient id="SVGID_21_" gradientUnits="userSpaceOnUse" x1="33.9466" y1="199.6026" x2="266.6134" y2="36.2691">
				<stop  offset="8.108110e-03" style="stop-color:#EDCE8C"/>
				<stop  offset="0.1189" style="stop-color:#D4A559"/>
				<stop  offset="0.1421" style="stop-color:#DAAE62"/>
				<stop  offset="0.2314" style="stop-color:#EECB80"/>
				<stop  offset="0.3079" style="stop-color:#FBDE92"/>
				<stop  offset="0.3622" style="stop-color:#FFE499"/>
				<stop  offset="0.6946" style="stop-color:#CFA24B"/>
				<stop  offset="1" style="stop-color:#FFEDAD"/>
			</linearGradient>
			<polygon class="st20" points="111.97,173.75 105.3,167.08 51.08,167.08 51.08,158.65 105.3,158.65 111.97,151.98 113.03,153.04 
				105.92,160.15 52.58,160.15 52.58,165.58 105.92,165.58 113.03,172.69 			"/>
		</g>
	</g>
	<g>
		<linearGradient id="SVGID_22_" gradientUnits="userSpaceOnUse" x1="21.5173" y1="181.8971" x2="254.1837" y2="18.5639">
			<stop  offset="8.108110e-03" style="stop-color:#EDCE8C"/>
			<stop  offset="0.1189" style="stop-color:#D4A559"/>
			<stop  offset="0.1421" style="stop-color:#DAAE62"/>
			<stop  offset="0.2314" style="stop-color:#EECB80"/>
			<stop  offset="0.3079" style="stop-color:#FBDE92"/>
			<stop  offset="0.3622" style="stop-color:#FFE499"/>
			<stop  offset="0.6946" style="stop-color:#CFA24B"/>
			<stop  offset="1" style="stop-color:#FFEDAD"/>
		</linearGradient>
		<polygon class="st21" points="102.59,163.63 31.84,163.63 31.84,154.49 7.64,154.49 7.64,152.99 33.34,152.99 33.34,162.13 
			102.59,162.13 		"/>
	</g>
	<g>
		<linearGradient id="SVGID_23_" gradientUnits="userSpaceOnUse" x1="11.0072" y1="166.9257" x2="243.6751" y2="3.5914">
			<stop  offset="8.108110e-03" style="stop-color:#EDCE8C"/>
			<stop  offset="0.1189" style="stop-color:#D4A559"/>
			<stop  offset="0.1421" style="stop-color:#DAAE62"/>
			<stop  offset="0.2314" style="stop-color:#EECB80"/>
			<stop  offset="0.3079" style="stop-color:#FBDE92"/>
			<stop  offset="0.3622" style="stop-color:#FFE499"/>
			<stop  offset="0.6946" style="stop-color:#CFA24B"/>
			<stop  offset="1" style="stop-color:#FFEDAD"/>
		</linearGradient>
		<path class="st22" d="M26.66,172.76H6.89v-19.77h19.77V172.76z M8.39,171.26h16.77v-16.77H8.39V171.26z"/>
	</g>
	<g>
		<linearGradient id="SVGID_24_" gradientUnits="userSpaceOnUse" x1="9.213" y1="164.3699" x2="241.8791" y2="1.0368">
			<stop  offset="8.108110e-03" style="stop-color:#EDCE8C"/>
			<stop  offset="0.1189" style="stop-color:#D4A559"/>
			<stop  offset="0.1421" style="stop-color:#DAAE62"/>
			<stop  offset="0.2314" style="stop-color:#EECB80"/>
			<stop  offset="0.3079" style="stop-color:#FBDE92"/>
			<stop  offset="0.3622" style="stop-color:#FFE499"/>
			<stop  offset="0.6946" style="stop-color:#CFA24B"/>
			<stop  offset="1" style="stop-color:#FFEDAD"/>
		</linearGradient>
		<path class="st23" d="M38.67,160.52H18.9v-19.77h19.77V160.52z M20.4,159.02h16.77v-16.77H20.4V159.02z"/>
	</g>
	<g>
		<linearGradient id="SVGID_25_" gradientUnits="userSpaceOnUse" x1="9.1578" y1="164.2907" x2="241.8233" y2="0.958">
			<stop  offset="8.108110e-03" style="stop-color:#EDCE8C"/>
			<stop  offset="0.1189" style="stop-color:#D4A559"/>
			<stop  offset="0.1421" style="stop-color:#DAAE62"/>
			<stop  offset="0.2314" style="stop-color:#EECB80"/>
			<stop  offset="0.3079" style="stop-color:#FBDE92"/>
			<stop  offset="0.3622" style="stop-color:#FFE499"/>
			<stop  offset="0.6946" style="stop-color:#CFA24B"/>
			<stop  offset="1" style="stop-color:#FFEDAD"/>
		</linearGradient>
		<path class="st24" d="M34.78,154.49h-9.63v-9.63h9.63V154.49z M26.66,152.99h6.63v-6.63h-6.63V152.99z"/>
	</g>
	<g>
		<g>
			<linearGradient id="SVGID_26_" gradientUnits="userSpaceOnUse" x1="-34.5847" y1="101.9806" x2="198.0819" y2="-61.3528">
				<stop  offset="8.108110e-03" style="stop-color:#EDCE8C"/>
				<stop  offset="0.1189" style="stop-color:#D4A559"/>
				<stop  offset="0.1421" style="stop-color:#DAAE62"/>
				<stop  offset="0.2314" style="stop-color:#EECB80"/>
				<stop  offset="0.3079" style="stop-color:#FBDE92"/>
				<stop  offset="0.3622" style="stop-color:#FFE499"/>
				<stop  offset="0.6946" style="stop-color:#CFA24B"/>
				<stop  offset="1" style="stop-color:#FFEDAD"/>
			</linearGradient>
			<polygon class="st25" points="111.97,28.02 105.3,21.35 51.08,21.35 51.08,12.92 105.3,12.92 111.97,6.25 113.03,7.31 
				105.92,14.42 52.58,14.42 52.58,19.85 105.92,19.85 113.03,26.96 			"/>
		</g>
	</g>
	<g>
		<linearGradient id="SVGID_27_" gradientUnits="userSpaceOnUse" x1="-42.729" y1="90.3789" x2="189.9373" y2="-72.9544">
			<stop  offset="8.108110e-03" style="stop-color:#EDCE8C"/>
			<stop  offset="0.1189" style="stop-color:#D4A559"/>
			<stop  offset="0.1421" style="stop-color:#DAAE62"/>
			<stop  offset="0.2314" style="stop-color:#EECB80"/>
			<stop  offset="0.3079" style="stop-color:#FBDE92"/>
			<stop  offset="0.3622" style="stop-color:#FFE499"/>
			<stop  offset="0.6946" style="stop-color:#CFA24B"/>
			<stop  offset="1" style="stop-color:#FFEDAD"/>
		</linearGradient>
		<polygon class="st26" points="33.34,27.01 7.64,27.01 7.64,25.51 31.84,25.51 31.84,16.37 102.59,16.37 102.59,17.87 33.34,17.87 
					"/>
	</g>
	<g>
		<linearGradient id="SVGID_28_" gradientUnits="userSpaceOnUse" x1="-57.535" y1="69.2884" x2="175.1328" y2="-94.0459">
			<stop  offset="8.108110e-03" style="stop-color:#EDCE8C"/>
			<stop  offset="0.1189" style="stop-color:#D4A559"/>
			<stop  offset="0.1421" style="stop-color:#DAAE62"/>
			<stop  offset="0.2314" style="stop-color:#EECB80"/>
			<stop  offset="0.3079" style="stop-color:#FBDE92"/>
			<stop  offset="0.3622" style="stop-color:#FFE499"/>
			<stop  offset="0.6946" style="stop-color:#CFA24B"/>
			<stop  offset="1" style="stop-color:#FFEDAD"/>
		</linearGradient>
		<path class="st27" d="M26.66,27.01H6.89V7.24h19.77V27.01z M8.39,25.51h16.77V8.74H8.39V25.51z"/>
	</g>
	<g>
		<linearGradient id="SVGID_29_" gradientUnits="userSpaceOnUse" x1="-47.8117" y1="83.1389" x2="184.8544" y2="-80.1942">
			<stop  offset="8.108110e-03" style="stop-color:#EDCE8C"/>
			<stop  offset="0.1189" style="stop-color:#D4A559"/>
			<stop  offset="0.1421" style="stop-color:#DAAE62"/>
			<stop  offset="0.2314" style="stop-color:#EECB80"/>
			<stop  offset="0.3079" style="stop-color:#FBDE92"/>
			<stop  offset="0.3622" style="stop-color:#FFE499"/>
			<stop  offset="0.6946" style="stop-color:#CFA24B"/>
			<stop  offset="1" style="stop-color:#FFEDAD"/>
		</linearGradient>
		<path class="st28" d="M38.67,39.25H18.9V19.48h19.77V39.25z M20.4,37.75h16.77V20.98H20.4V37.75z"/>
	</g>
	<g>
		<linearGradient id="SVGID_30_" gradientUnits="userSpaceOnUse" x1="-46.971" y1="84.335" x2="185.6945" y2="-78.9976">
			<stop  offset="8.108110e-03" style="stop-color:#EDCE8C"/>
			<stop  offset="0.1189" style="stop-color:#D4A559"/>
			<stop  offset="0.1421" style="stop-color:#DAAE62"/>
			<stop  offset="0.2314" style="stop-color:#EECB80"/>
			<stop  offset="0.3079" style="stop-color:#FBDE92"/>
			<stop  offset="0.3622" style="stop-color:#FFE499"/>
			<stop  offset="0.6946" style="stop-color:#CFA24B"/>
			<stop  offset="1" style="stop-color:#FFEDAD"/>
		</linearGradient>
		<path class="st29" d="M34.78,35.13h-9.63v-9.63h9.63V35.13z M26.66,33.63h6.63v-6.63h-6.63V33.63z"/>
	</g>
	<g>
		<linearGradient id="SVGID_31_" gradientUnits="userSpaceOnUse" x1="-21.0283" y1="121.2915" x2="211.6387" y2="-42.0422">
			<stop  offset="8.108110e-03" style="stop-color:#EDCE8C"/>
			<stop  offset="0.1189" style="stop-color:#D4A559"/>
			<stop  offset="0.1421" style="stop-color:#DAAE62"/>
			<stop  offset="0.2314" style="stop-color:#EECB80"/>
			<stop  offset="0.3079" style="stop-color:#FBDE92"/>
			<stop  offset="0.3622" style="stop-color:#FFE499"/>
			<stop  offset="0.6946" style="stop-color:#CFA24B"/>
			<stop  offset="1" style="stop-color:#FFEDAD"/>
		</linearGradient>
		<polygon class="st30" points="26.66,153.74 25.16,153.74 25.16,148.27 12.64,148.27 12.64,125.9 18.9,125.9 18.9,53.71 
			12.64,53.71 12.64,31.73 25.16,31.73 25.16,26.26 26.66,26.26 26.66,33.23 14.14,33.23 14.14,52.21 20.4,52.21 20.4,127.4 
			14.14,127.4 14.14,146.77 26.66,146.77 		"/>
	</g>
	<g>
		<linearGradient id="SVGID_32_" gradientUnits="userSpaceOnUse" x1="-23.9684" y1="117.1033" x2="208.6982" y2="-46.2301">
			<stop  offset="8.108110e-03" style="stop-color:#EDCE8C"/>
			<stop  offset="0.1189" style="stop-color:#D4A559"/>
			<stop  offset="0.1421" style="stop-color:#DAAE62"/>
			<stop  offset="0.2314" style="stop-color:#EECB80"/>
			<stop  offset="0.3079" style="stop-color:#FBDE92"/>
			<stop  offset="0.3622" style="stop-color:#FFE499"/>
			<stop  offset="0.6946" style="stop-color:#CFA24B"/>
			<stop  offset="1" style="stop-color:#FFEDAD"/>
		</linearGradient>
		<rect x="13.14" y="56.08" class="st31" width="3" height="67.83"/>
	</g>
	<g>
		<g>
			<linearGradient id="SVGID_33_" gradientUnits="userSpaceOnUse" x1="-22.3286" y1="119.4391" x2="210.3376" y2="-43.8941">
				<stop  offset="8.108110e-03" style="stop-color:#EDCE8C"/>
				<stop  offset="0.1189" style="stop-color:#D4A559"/>
				<stop  offset="0.1421" style="stop-color:#DAAE62"/>
				<stop  offset="0.2314" style="stop-color:#EECB80"/>
				<stop  offset="0.3079" style="stop-color:#FBDE92"/>
				<stop  offset="0.3622" style="stop-color:#FFE499"/>
				<stop  offset="0.6946" style="stop-color:#CFA24B"/>
				<stop  offset="1" style="stop-color:#FFEDAD"/>
			</linearGradient>
			<polygon class="st32" points="26.13,134.85 13.08,134.85 13.08,131.85 23.13,131.85 23.13,48.15 13.08,48.15 13.08,45.15 
				26.13,45.15 			"/>
		</g>
		<g>
			<linearGradient id="SVGID_34_" gradientUnits="userSpaceOnUse" x1="47.0777" y1="218.3079" x2="279.7443" y2="54.9745">
				<stop  offset="8.108110e-03" style="stop-color:#EDCE8C"/>
				<stop  offset="0.1189" style="stop-color:#D4A559"/>
				<stop  offset="0.1421" style="stop-color:#DAAE62"/>
				<stop  offset="0.2314" style="stop-color:#EECB80"/>
				<stop  offset="0.3079" style="stop-color:#FBDE92"/>
				<stop  offset="0.3622" style="stop-color:#FFE499"/>
				<stop  offset="0.6946" style="stop-color:#CFA24B"/>
				<stop  offset="1" style="stop-color:#FFEDAD"/>
			</linearGradient>
			<polygon class="st33" points="236.38,134.85 223.32,134.85 223.32,45.15 236.38,45.15 236.38,48.15 226.32,48.15 226.32,131.85 
				236.38,131.85 			"/>
		</g>
	</g>
</g>
</svg>
